<svg width="32" height="32" viewBox="0 0 32 32" fill="none" xmlns="http://www.w3.org/2000/svg">
<path fill-rule="evenodd" clip-rule="evenodd" d="M29 3.00146H3C2.73503 3.00226 2.48113 3.10787 2.29377 3.29523C2.1064 3.4826 2.00079 3.73649 2 4.00147V22.0015C2.00079 22.2664 2.1064 22.5203 2.29377 22.7077C2.48113 22.8951 2.73503 23.0007 3 23.0015H11V27.0015H10C9.73478 27.0015 9.48043 27.1068 9.29289 27.2944C9.10536 27.4819 9 27.7362 9 28.0015C9 28.2667 9.10536 28.521 9.29289 28.7086C9.48043 28.8961 9.73478 29.0015 10 29.0015H22C22.2652 29.0015 22.5196 28.8961 22.7071 28.7086C22.8946 28.521 23 28.2667 23 28.0015C23 27.7362 22.8946 27.4819 22.7071 27.2944C22.5196 27.1068 22.2652 27.0015 22 27.0015H21V23.0015H29C29.265 23.0007 29.5189 22.8951 29.7062 22.7077C29.8936 22.5203 29.9992 22.2664 30 22.0015V4.00147C29.9992 3.73649 29.8936 3.4826 29.7062 3.29523C29.5189 3.10787 29.265 3.00226 29 3.00146ZM19 27.0015H13V23.0015H19V27.0015ZM28 21.0015H4V5.00147H28V21.0015ZM14.71 11.7114L9.71001 16.7114C9.52043 16.8973 9.26551 17.0014 9.00001 17.0014C8.7345 17.0014 8.47958 16.8973 8.29001 16.7114C8.10263 16.5226 7.99748 16.2674 7.99748 16.0014C7.99748 15.7354 8.10263 15.4802 8.29001 15.2914L13.29 10.2914C13.3831 10.1975 13.4938 10.123 13.6158 10.072C13.7378 10.021 13.8687 9.99466 14.0009 9.99439C14.1331 9.99412 14.264 10.02 14.3862 10.0704C14.5084 10.1209 14.6194 10.195 14.7129 10.2885C14.8064 10.382 14.8805 10.493 14.931 10.6152C14.9814 10.7374 15.0073 10.8683 15.007 11.0005C15.0067 11.1327 14.9804 11.2636 14.9294 11.3856C14.8784 11.5076 14.8039 11.6183 14.71 11.7114ZM6.44454 11.8313C6.60895 11.9412 6.80225 11.9999 7 11.9999C7.13134 12.0001 7.26141 11.9743 7.38274 11.924C7.50408 11.8737 7.61427 11.7999 7.707 11.7069L9.707 9.70692C9.88916 9.51832 9.98995 9.26571 9.98767 9.00352C9.9854 8.74132 9.88023 8.49051 9.69482 8.3051C9.50941 8.11969 9.2586 8.01452 8.9964 8.01224C8.7342 8.00997 8.4816 8.11076 8.293 8.29292L6.293 10.2929C6.15319 10.4328 6.05798 10.6109 6.01942 10.8049C5.98085 10.9988 6.00065 11.1999 6.07632 11.3826C6.15199 11.5653 6.28013 11.7214 6.44454 11.8313Z" fill="black"/>
</svg>
