<svg width="20" height="20" viewBox="0 0 20 20" fill="none" xmlns="http://www.w3.org/2000/svg">
<path d="M16.25 2.5H12.7562L11.6937 1.43125C11.6353 1.37332 11.5661 1.32749 11.4899 1.29639C11.4138 1.26529 11.3323 1.24952 11.25 1.25H8.75C8.66775 1.24952 8.58621 1.26529 8.51006 1.29639C8.43391 1.32749 8.36465 1.37332 8.30625 1.43125L7.24375 2.5H3.75C3.58424 2.5 3.42527 2.56584 3.30806 2.68305C3.19085 2.80026 3.125 2.95923 3.125 3.125V5.625C3.125 5.79076 3.19085 5.94973 3.30806 6.06694C3.42527 6.18415 3.58424 6.25 3.75 6.25H4.375V17.5C4.375 17.6658 4.44085 17.8247 4.55806 17.9419C4.67527 18.0591 4.83424 18.125 5 18.125H15C15.1658 18.125 15.3247 18.0591 15.4419 17.9419C15.5592 17.8247 15.625 17.6658 15.625 17.5V6.25H16.25C16.4158 6.25 16.5747 6.18415 16.6919 6.06694C16.8092 5.94973 16.875 5.79076 16.875 5.625V3.125C16.875 2.95923 16.8092 2.80026 16.6919 2.68305C16.5747 2.56584 16.4158 2.5 16.25 2.5V2.5ZM14.375 16.875H5.625V6.25H14.375V16.875ZM15.625 5H4.375V3.75H7.5C7.58225 3.75047 7.66379 3.73471 7.73994 3.7036C7.81609 3.6725 7.88535 3.62667 7.94375 3.56875L9.00625 2.5H10.9938L12.0563 3.56875C12.1147 3.62667 12.1839 3.6725 12.2601 3.7036C12.3362 3.73471 12.4177 3.75047 12.5 3.75H15.625V5Z" fill="black"/>
<path d="M11.875 15.625C11.7092 15.625 11.5503 15.5592 11.4331 15.4419C11.3158 15.3247 11.25 15.1658 11.25 15V8.125C11.25 7.95924 11.3158 7.80027 11.4331 7.68306C11.5503 7.56585 11.7092 7.5 11.875 7.5C12.0408 7.5 12.1997 7.56585 12.3169 7.68306C12.4342 7.80027 12.5 7.95924 12.5 8.125V15C12.5 15.1658 12.4342 15.3247 12.3169 15.4419C12.1997 15.5592 12.0408 15.625 11.875 15.625Z" fill="black"/>
<path d="M8.125 15.625C7.95924 15.625 7.80027 15.5592 7.68306 15.4419C7.56585 15.3247 7.5 15.1658 7.5 15V8.125C7.5 7.95924 7.56585 7.80027 7.68306 7.68306C7.80027 7.56585 7.95924 7.5 8.125 7.5C8.29076 7.5 8.44973 7.56585 8.56694 7.68306C8.68415 7.80027 8.75 7.95924 8.75 8.125V15C8.75 15.1658 8.68415 15.3247 8.56694 15.4419C8.44973 15.5592 8.29076 15.625 8.125 15.625Z" fill="black"/>
</svg>
