<?xml version="1.0" encoding="UTF-8" standalone="no"?>
<svg
   width="20"
   height="20"
   viewBox="0 0 20 20"
   fill="none"
   version="1.1"
   id="svg152"
   sodipodi:docname="File-Explorer.svg"
   inkscape:version="1.2.2 (732a01da63, 2022-12-09, custom)"
   xmlns:inkscape="http://www.inkscape.org/namespaces/inkscape"
   xmlns:sodipodi="http://sodipodi.sourceforge.net/DTD/sodipodi-0.dtd"
   xmlns="http://www.w3.org/2000/svg"
   xmlns:svg="http://www.w3.org/2000/svg">
  <defs
     id="defs156" />
  <sodipodi:namedview
     id="namedview154"
     pagecolor="#ffffff"
     bordercolor="#000000"
     borderopacity="0.25"
     inkscape:showpageshadow="2"
     inkscape:pageopacity="0.0"
     inkscape:pagecheckerboard="0"
     inkscape:deskcolor="#d1d1d1"
     showgrid="false"
     inkscape:zoom="22.275"
     inkscape:cx="9.0684624"
     inkscape:cy="8.5521885"
     inkscape:window-width="1920"
     inkscape:window-height="1136"
     inkscape:window-x="0"
     inkscape:window-y="1107"
     inkscape:window-maximized="1"
     inkscape:current-layer="svg152" />
  <path
     d="m 4.2851666,14.818596 c -0.16576,0 -0.32473,-0.0658 -0.44194,-0.1831 -0.11721,-0.1172 -0.18306,-0.2761 -0.18306,-0.4419 V 2.9435961 c 0,-0.16576 0.06585,-0.32473 0.18306,-0.44194 0.11721,-0.11721 0.27618,-0.18306 0.44194,-0.18306 h 4.375 c 0.16576,0 0.32473,0.06585 0.44194,0.18306 0.11721,0.11721 0.18306,0.27618 0.18306,0.44194 0,0.16576 -0.06585,0.32473 -0.18306,0.44194 -0.11721,0.11721 -0.27618,0.18306 -0.44194,0.18306 h -3.75 V 14.193596 c 0,0.1658 -0.06585,0.3247 -0.18306,0.4419 -0.11721,0.1173 -0.27618,0.1831 -0.44194,0.1831 z"
     fill="#000000"
     id="path148" />
  <path
     d="m 15.978867,9.9998461 -4.99995,-5 c -0.11915,-0.11516 -0.27805,-0.18006 -0.44375,-0.18125 H 6.7851666 c -0.16561,4.8e-4 -0.32431,0.06648 -0.44141,0.18359 -0.11711,0.1171 -0.18311,0.2758 -0.18359,0.44141 V 16.693596 c 4.8e-4,0.1656 0.06648,0.3243 0.18359,0.4414 0.1171,0.1171 0.2758,0.1831 0.44141,0.1836 h 8.7500004 c 0.1656,-5e-4 0.3243,-0.0665 0.4414,-0.1836 0.1171,-0.1171 0.1831,-0.2758 0.1836,-0.4414 v -6.25 c -0.0012,-0.1657 -0.0661,-0.32458 -0.1813,-0.4437499 z m -4.8187,-3.05 2.85,2.85 -2.85,0.01875 z m 3.75,9.1187499 H 7.4101666 V 6.0685961 h 2.5000001 v 4.3749999 c 0.0012,0.1657 0.06611,0.32458 0.1812503,0.44375 0.11823,0.11657 0.27772,0.18175 0.44375,0.18125 l 4.375,-0.01875 z"
     fill="#000000"
     id="path150" />
</svg>
