<svg width="32" height="32" viewBox="0 0 32 32" fill="none" xmlns="http://www.w3.org/2000/svg">
<path d="M23.71 14.29L15.71 6.29C15.5194 6.10574 15.2651 6.0019 15 6H9C8.73502 6.00077 8.48111 6.10637 8.29374 6.29374C8.10637 6.48111 8.00077 6.73502 8 7V25C8.00077 25.265 8.10637 25.5189 8.29374 25.7063C8.48111 25.8936 8.73502 25.9992 9 26H23C23.265 25.9992 23.5189 25.8936 23.7063 25.7063C23.8936 25.5189 23.9992 25.265 24 25V15C23.9981 14.7349 23.8942 14.4807 23.71 14.29ZM16 9.41L20.56 13.97L16 14V9.41ZM22 24H10V8H14V15C14.0019 15.2651 14.1058 15.5193 14.29 15.71C14.4792 15.8965 14.7344 16.0007 15 16L22 15.97V24Z" fill="black"/>
</svg>
