<svg width="20" height="20" viewBox="0 0 20 20" fill="none" xmlns="http://www.w3.org/2000/svg">
<path d="M3.125 13.75C2.95924 13.75 2.80027 13.6842 2.68306 13.5669C2.56585 13.4497 2.5 13.2908 2.5 13.125V1.875C2.5 1.70924 2.56585 1.55027 2.68306 1.43306C2.80027 1.31585 2.95924 1.25 3.125 1.25H7.5C7.66576 1.25 7.82473 1.31585 7.94194 1.43306C8.05915 1.55027 8.125 1.70924 8.125 1.875C8.125 2.04076 8.05915 2.19973 7.94194 2.31694C7.82473 2.43415 7.66576 2.5 7.5 2.5H3.75V13.125C3.75 13.2908 3.68415 13.4497 3.56694 13.5669C3.44973 13.6842 3.29076 13.75 3.125 13.75Z" fill="black"/>
<path d="M14.8187 8.93125L9.81875 3.93125C9.6996 3.81609 9.5407 3.75119 9.375 3.75H5.625C5.45939 3.75048 5.30069 3.81648 5.18359 3.93359C5.06648 4.05069 5.00048 4.20939 5 4.375V15.625C5.00048 15.7906 5.06648 15.9493 5.18359 16.0664C5.30069 16.1835 5.45939 16.2495 5.625 16.25H14.375C14.5406 16.2495 14.6993 16.1835 14.8164 16.0664C14.9335 15.9493 14.9995 15.7906 15 15.625V9.375C14.9988 9.2093 14.9339 9.05042 14.8187 8.93125ZM10 5.88125L12.85 8.73125L10 8.75V5.88125ZM13.75 15H6.25V5H8.75V9.375C8.75121 9.5407 8.81611 9.69958 8.93125 9.81875C9.04948 9.93532 9.20897 10.0005 9.375 10L13.75 9.98125V15Z" fill="black"/>
</svg>
