<svg width="32" height="32" viewBox="0 0 32 32" fill="none" xmlns="http://www.w3.org/2000/svg">
<path d="M27 10H16.41L12.71 6.29002C12.6166 6.19734 12.5057 6.12401 12.3839 6.07425C12.2621 6.02448 12.1316 5.99926 12 6.00002H5C4.73478 6.00002 4.48043 6.10537 4.29289 6.29291C4.10536 6.48045 4 6.7348 4 7.00002V25C4 25.2652 4.10536 25.5196 4.29289 25.7071C4.48043 25.8947 4.73478 26 5 26H27C27.2652 26 27.5196 25.8947 27.7071 25.7071C27.8946 25.5196 28 25.2652 28 25V11C28 10.7348 27.8946 10.4804 27.7071 10.2929C27.5196 10.1054 27.2652 10 27 10ZM6 8.00002H11.59L13.59 10H6V8.00002ZM26 24H6V12H26V24Z" fill="black"/>
</svg>
