<?xml version="1.0" encoding="UTF-8" standalone="no"?>
<svg
   width="20"
   height="20"
   viewBox="0 0 20 20"
   fill="none"
   version="1.1"
   id="svg152"
   sodipodi:docname="New.svg"
   inkscape:version="1.2.2 (732a01da63, 2022-12-09, custom)"
   xmlns:inkscape="http://www.inkscape.org/namespaces/inkscape"
   xmlns:sodipodi="http://sodipodi.sourceforge.net/DTD/sodipodi-0.dtd"
   xmlns="http://www.w3.org/2000/svg"
   xmlns:svg="http://www.w3.org/2000/svg">
  <defs
     id="defs156" />
  <sodipodi:namedview
     id="namedview154"
     pagecolor="#ffffff"
     bordercolor="#000000"
     borderopacity="0.25"
     inkscape:showpageshadow="2"
     inkscape:pageopacity="0.0"
     inkscape:pagecheckerboard="0"
     inkscape:deskcolor="#d1d1d1"
     showgrid="false"
     inkscape:zoom="11.1375"
     inkscape:cx="5.4769921"
     inkscape:cy="10.729517"
     inkscape:window-width="1920"
     inkscape:window-height="1136"
     inkscape:window-x="0"
     inkscape:window-y="1107"
     inkscape:window-maximized="1"
     inkscape:current-layer="svg152" />
  <path
     d="m 18.175884,16.236839 c -5.54e-4,0.183476 -0.07368,0.359306 -0.203418,0.489045 -0.129739,0.129739 -0.305569,0.202863 -0.489044,0.203417 h -2.077386 v 2.077386 c 0,0.183696 -0.0729,0.359748 -0.202864,0.489598 -0.12985,0.129961 -0.305902,0.202864 -0.489599,0.202864 -0.183695,0 -0.359746,-0.0729 -0.489598,-0.202864 -0.129961,-0.12985 -0.202862,-0.305902 -0.202862,-0.489598 v -2.077386 h -2.077387 c -0.183695,0 -0.359747,-0.0729 -0.489598,-0.202864 -0.129961,-0.12985 -0.202863,-0.305902 -0.202863,-0.489598 0,-0.183696 0.0729,-0.359747 0.202863,-0.489598 0.129851,-0.129962 0.305903,-0.202863 0.489598,-0.202863 h 2.077387 v -2.077387 c 0,-0.183695 0.0729,-0.359747 0.202862,-0.489598 0.129852,-0.129961 0.305903,-0.202863 0.489598,-0.202863 0.183697,0 0.359749,0.0729 0.489599,0.202863 0.129961,0.129851 0.202864,0.305903 0.202864,0.489598 v 2.077387 h 2.077386 c 0.183475,5.54e-4 0.359305,0.07368 0.489044,0.203417 0.12974,0.129741 0.202864,0.30557 0.203418,0.489044 z"
     fill="#000000"
     id="path148"
     style="stroke-width:1.10794" />
  <path
     d="M 15.205167,8.820572 9.6655266,3.2808768 C 9.5335153,3.1532864 9.3574639,3.0813812 9.1738783,3.0800627 H 5.0191069 C 4.8356212,3.0805945 4.6597911,3.1537185 4.5300515,3.2834693 4.4003008,3.413209 4.3271768,3.5890388 4.326645,3.7725246 V 16.236839 c 5.318e-4,0.183476 0.073656,0.359306 0.2034065,0.489045 0.1297396,0.129739 0.3055697,0.202863 0.4890554,0.203417 h 4.1547714 c 0.183652,0 0.359781,-0.0729 0.4896423,-0.202864 0.129862,-0.12985 0.20282,-0.305902 0.20282,-0.489598 0,-0.183696 -0.07296,-0.359747 -0.20282,-0.489598 C 9.5336593,15.617279 9.3575303,15.544378 9.1738783,15.544378 H 5.7115688 V 4.4649867 H 8.4814163 V 9.31222 c 0.00133,0.1835854 0.073247,0.3596149 0.200814,0.4916479 0.1309917,0.1291525 0.3076968,0.2013681 0.491648,0.2008141 L 14.021113,9.983908 v 0.713236 c 0,0.183697 0.0729,0.359749 0.202862,0.489599 0.129852,0.129962 0.305903,0.202864 0.489598,0.202864 0.183697,0 0.359749,-0.0729 0.489599,-0.202864 0.129961,-0.12985 0.202864,-0.305902 0.202864,-0.489599 V 9.3122199 C 15.404739,9.1286344 15.3328,8.9526051 15.205167,8.820572 Z M 9.8663406,8.6197581 V 5.4413578 l 3.1576264,3.1576265 z"
     fill="#000000"
     id="path150"
     style="stroke-width:1.10794" />
</svg>
