<?xml version="1.0" encoding="UTF-8" standalone="no"?>
<svg
   width="20"
   height="20"
   viewBox="0 0 20 20"
   fill="none"
   version="1.1"
   id="svg346"
   sodipodi:docname="Output.svg"
   inkscape:version="1.2.2 (732a01da63, 2022-12-09, custom)"
   xmlns:inkscape="http://www.inkscape.org/namespaces/inkscape"
   xmlns:sodipodi="http://sodipodi.sourceforge.net/DTD/sodipodi-0.dtd"
   xmlns="http://www.w3.org/2000/svg"
   xmlns:svg="http://www.w3.org/2000/svg">
  <defs
     id="defs350" />
  <sodipodi:namedview
     id="namedview348"
     pagecolor="#ffffff"
     bordercolor="#000000"
     borderopacity="0.25"
     inkscape:showpageshadow="2"
     inkscape:pageopacity="0.0"
     inkscape:pagecheckerboard="0"
     inkscape:deskcolor="#d1d1d1"
     showgrid="false"
     inkscape:zoom="11.8"
     inkscape:cx="4.0677966"
     inkscape:cy="10.042373"
     inkscape:window-width="1920"
     inkscape:window-height="1136"
     inkscape:window-x="0"
     inkscape:window-y="1107"
     inkscape:window-maximized="1"
     inkscape:current-layer="svg346" />
  <path
     d="m 4.6470361,13.042478 c -0.08225,5e-4 -0.16379,-0.0153 -0.23994,-0.0464 -0.07615,-0.0311 -0.14541,-0.0769 -0.20381,-0.1349 -0.05858,-0.0581 -0.10507,-0.1272 -0.1368,-0.2033 -0.03174,-0.0762 -0.04807,-0.1579 -0.04807,-0.2404 0,-0.0825 0.01633,-0.1642 0.04807,-0.2404 0.03173,-0.0761 0.07822,-0.1453 0.1368,-0.2034 l 3.3125,-3.3062096 -3.3125,-3.30625 c -0.05827,-0.05827 -0.1045,-0.12745 -0.13603,-0.20359 -0.03154,-0.07614 -0.04777,-0.15774 -0.04777,-0.24016 0,-0.08241 0.01623,-0.16401 0.04777,-0.24015 0.03153,-0.07614 0.07776,-0.14532 0.13603,-0.2036 0.05828,-0.05827 0.12746,-0.1045 0.2036,-0.13603 0.07614,-0.03154 0.15774,-0.04777 0.24015,-0.04777 0.08241,0 0.16402,0.01623 0.24016,0.04777 0.07614,0.03153 0.14532,0.07776 0.20359,0.13603 l 3.75,3.75 c 0.05858,0.05811 0.10508,0.12723 0.13681,0.20339 0.03173,0.07616 0.04807,0.15786 0.04807,0.24036 0,0.08251 -0.01634,0.1642 -0.04807,0.24036 -0.03173,0.07617 -0.07823,0.14529 -0.13681,0.20339 l -3.75,3.7499596 c -0.0584,0.058 -0.12766,0.1038 -0.20381,0.1349 -0.07614,0.0311 -0.15768,0.0469 -0.23994,0.0464 z"
     fill="#000000"
     id="path342" />
  <path
     d="M 15.272046,16.167478 H 9.0220461 c -0.16576,0 -0.32473,-0.0658 -0.44194,-0.1831 -0.11721,-0.1172 -0.18306,-0.2761 -0.18306,-0.4419 0,-0.1658 0.06585,-0.3247 0.18306,-0.4419 0.11721,-0.1173 0.27618,-0.1831 0.44194,-0.1831 h 6.2499999 c 0.1658,0 0.3247,0.0658 0.4419,0.1831 0.1173,0.1172 0.1831,0.2761 0.1831,0.4419 0,0.1658 -0.0658,0.3247 -0.1831,0.4419 -0.1172,0.1173 -0.2761,0.1831 -0.4419,0.1831 z"
     fill="#000000"
     id="path344" />
</svg>
