<svg width="60" height="60" viewBox="0 0 60 60" fill="none" xmlns="http://www.w3.org/2000/svg">
<path d="M47.5 5H37.05C36 2.1 33.25 0 30 0C26.75 0 24 2.1 22.95 5H12.5C9.75 5 7.5 7.25 7.5 10V50C7.5 52.75 9.75 55 12.5 55H47.5C50.25 55 52.5 52.75 52.5 50V10C52.5 7.25 50.25 5 47.5 5ZM30 5C31.375 5 32.5 6.125 32.5 7.5C32.5 8.875 31.375 10 30 10C28.625 10 27.5 8.875 27.5 7.5C27.5 6.125 28.625 5 30 5ZM47.5 50H12.5V10H17.5V17.5H42.5V10H47.5V50Z" fill="black"/>
<path fill-rule="evenodd" clip-rule="evenodd" d="M37.05 5C36 2.1 33.25 0 30 0C26.75 0 24 2.1 22.95 5H12.5C9.75 5 7.5 7.25 7.5 10V50C7.5 52.75 9.75 55 12.5 55H47.5C50.25 55 52.5 52.75 52.5 50V10C52.5 7.25 50.25 5 47.5 5H37.05ZM12.5 50V10H17.5V17.5H42.5V10H47.5V50H12.5ZM32.5 7.5C32.5 6.125 31.375 5 30 5C28.625 5 27.5 6.125 27.5 7.5C27.5 8.875 28.625 10 30 10C31.375 10 32.5 8.875 32.5 7.5Z" fill="black"/>
</svg>
