<svg width="20" height="20" viewBox="0 0 20 20" fill="none" xmlns="http://www.w3.org/2000/svg">
<g clip-path="url(#clip0_435_2217)">
<path d="M10.0014 18.7486C12.3221 18.7486 14.5477 17.8267 16.1886 16.1858C17.8296 14.5448 18.7514 12.3192 18.7514 9.9986C18.7514 9.83284 18.6856 9.67387 18.5684 9.55666C18.4512 9.43945 18.2922 9.3736 18.1264 9.3736C17.9607 9.3736 17.8017 9.43945 17.6845 9.55666C17.5673 9.67387 17.5014 9.83284 17.5014 9.9986C17.5011 11.7136 16.913 13.3767 15.8351 14.7107C14.7572 16.0447 13.2547 16.969 11.578 17.3295C9.90128 17.69 8.15165 17.465 6.62074 16.6919C5.08982 15.9189 3.8701 14.6445 3.16486 13.0811C2.45963 11.5178 2.31149 9.76 2.74514 8.1007C3.17879 6.4414 4.16802 4.98084 5.54797 3.96246C6.92791 2.94408 8.6152 2.42941 10.3286 2.50422C12.042 2.57904 13.678 3.23882 14.9639 4.3736L11.8764 4.3736C11.7107 4.3736 11.5517 4.43944 11.4345 4.55666C11.3173 4.67387 11.2514 4.83284 11.2514 4.9986C11.2514 5.16436 11.3173 5.32333 11.4345 5.44054C11.5517 5.55775 11.7107 5.6236 11.8764 5.6236L16.2514 5.6236C16.4172 5.6236 16.5762 5.55775 16.6934 5.44054C16.8106 5.32333 16.8764 5.16436 16.8764 4.9986L16.8764 0.623597C16.8764 0.457837 16.8106 0.298865 16.6934 0.181655C16.5762 0.0644449 16.4172 -0.00140315 16.2514 -0.00140315C16.0857 -0.00140316 15.9267 0.0644449 15.8095 0.181655C15.6923 0.298865 15.6264 0.457837 15.6264 0.623597L15.6264 3.2986C14.5491 2.39366 13.2694 1.76187 11.8959 1.45678C10.5224 1.1517 9.09564 1.18232 7.7365 1.54606C6.37737 1.90979 5.12598 2.59592 4.08847 3.54624C3.05096 4.49657 2.25791 5.68307 1.77657 7.00514C1.29523 8.32721 1.13981 9.74586 1.32347 11.1408C1.50713 12.5357 2.02446 13.8658 2.83159 15.0182C3.63873 16.1706 4.71186 17.1114 5.96 17.7608C7.20813 18.4102 8.59446 18.7491 10.0014 18.7486V18.7486Z" fill="black"/>
</g>
<defs>
<clipPath id="clip0_435_2217">
<rect width="20" height="20" fill="white"/>
</clipPath>
</defs>
</svg>
