<svg width="20" height="20" viewBox="0 0 20 20" fill="none" xmlns="http://www.w3.org/2000/svg">
<path d="M5.625 16.875C5.45925 16.875 5.30031 16.8091 5.18311 16.6919C5.06591 16.5747 5.00004 16.4158 5 16.25V3.75001C5.00003 3.63989 5.02915 3.53174 5.08441 3.43648C5.13966 3.34123 5.2191 3.26226 5.31467 3.20757C5.41025 3.15287 5.51858 3.12439 5.6287 3.12501C5.73881 3.12563 5.84682 3.15532 5.94177 3.21108L16.5668 9.46108C16.6606 9.51629 16.7384 9.59506 16.7925 9.68959C16.8466 9.78411 16.875 9.89112 16.875 10C16.875 10.1089 16.8466 10.2159 16.7925 10.3104C16.7384 10.405 16.6606 10.4837 16.5668 10.539L5.94177 16.789C5.84575 16.8454 5.73638 16.8751 5.625 16.875V16.875ZM6.25 4.84254V15.1575L15.0171 10L6.25 4.84254Z" fill="black"/>
</svg>
