<svg width="50" height="50" viewBox="0 0 50 50" fill="none" xmlns="http://www.w3.org/2000/svg">
<path d="M21.8743 35.9376C21.6687 35.9388 21.4648 35.8993 21.2744 35.8216C21.0841 35.7438 20.9109 35.6293 20.7649 35.4843C20.6185 35.3391 20.5022 35.1663 20.4229 34.9761C20.3436 34.7856 20.3027 34.5813 20.3027 34.3751C20.3027 34.1688 20.3436 33.9646 20.4229 33.7741C20.5022 33.5838 20.6185 33.4108 20.7649 33.2656L29.0461 25L20.7649 16.7344C20.4707 16.4402 20.3054 16.0411 20.3054 15.625C20.3054 15.2089 20.4707 14.8099 20.7649 14.5157C21.0591 14.2214 21.4582 14.0562 21.8743 14.0562C22.2904 14.0562 22.6894 14.2214 22.9837 14.5157L32.3586 23.8907C32.5051 24.0359 32.6213 24.2087 32.7006 24.3991C32.7801 24.5895 32.8208 24.7938 32.8208 25C32.8208 25.2063 32.7801 25.4106 32.7006 25.6011C32.6213 25.7913 32.5051 25.9641 32.3586 26.1093L22.9837 35.4843C22.8377 35.6293 22.6645 35.7438 22.4741 35.8216C22.2838 35.8993 22.0799 35.9388 21.8743 35.9376Z" fill="black"/>
</svg>
