<svg width="24" height="25" viewBox="0 0 24 25" fill="none" xmlns="http://www.w3.org/2000/svg">
<path d="M10.4996 7.24986C10.5983 7.24926 10.6961 7.26822 10.7874 7.30554C10.8789 7.34286 10.962 7.39782 11.0321 7.46742L15.5321 11.9674C15.6024 12.0371 15.6581 12.1201 15.6962 12.2114C15.7343 12.3028 15.7539 12.4009 15.7539 12.4999C15.7539 12.5989 15.7343 12.6969 15.6962 12.7883C15.6581 12.8797 15.6024 12.9626 15.5321 13.0324L11.0321 17.5324C10.9622 17.6023 10.8791 17.6578 10.7878 17.6956C10.6964 17.7335 10.5984 17.7529 10.4996 17.7529C10.4007 17.7529 10.3028 17.7335 10.2114 17.6956C10.12 17.6578 10.037 17.6023 9.96711 17.5324C9.89715 17.4624 9.84171 17.3794 9.80379 17.288C9.76599 17.1967 9.74655 17.0988 9.74655 16.9999C9.74655 16.901 9.76599 16.803 9.80379 16.7117C9.84171 16.6203 9.89715 16.5373 9.96711 16.4674L13.9421 12.4999L9.96711 8.53242C9.89679 8.4627 9.84099 8.37966 9.80295 8.28834C9.76479 8.1969 9.74523 8.09886 9.74523 7.99986C9.74523 7.90086 9.76479 7.80282 9.80295 7.71138C9.84099 7.62006 9.89679 7.53714 9.96711 7.46742C10.0372 7.39782 10.1202 7.34286 10.2117 7.30554C10.303 7.26822 10.4009 7.24926 10.4996 7.24986Z" fill="white"/>
</svg>
