<svg width="50" height="50" viewBox="0 0 50 50" fill="none" xmlns="http://www.w3.org/2000/svg">
<path d="M46.4212 3.57814C46.276 3.43169 46.103 3.31547 45.9127 3.23614C45.7222 3.15679 45.518 3.11597 45.3117 3.11597C45.1055 3.11597 44.9012 3.15679 44.711 3.23614C44.5205 3.31547 44.3477 3.43169 44.2025 3.57814L34.265 13.5156C32.6865 12.4571 30.7902 11.9783 28.8987 12.1606C27.007 12.3429 25.237 13.1752 23.8899 14.5156L20.3118 18.0938L19.8587 17.6406C19.5644 17.3464 19.1654 17.1811 18.7493 17.1811C18.3332 17.1811 17.9341 17.3464 17.6399 17.6406C17.3457 17.9349 17.1804 18.3339 17.1804 18.75C17.1804 19.1661 17.3457 19.5652 17.6399 19.8594L18.093 20.3125L14.5149 23.8906C13.1744 25.2378 12.3422 27.0078 12.1599 28.8993C11.9776 30.791 12.4564 32.6873 13.5149 34.2655L3.57741 44.203C3.43096 44.3483 3.31473 44.5213 3.23541 44.7115C3.15608 44.902 3.11523 45.1063 3.11523 45.3125C3.11523 45.5188 3.15608 45.723 3.23541 45.9135C3.31473 46.1038 3.43096 46.2765 3.57741 46.4218C3.72266 46.5683 3.89548 46.6845 4.08588 46.7638C4.27628 46.8433 4.48053 46.884 4.68678 46.884C4.89306 46.884 5.09728 46.8433 5.28768 46.7638C5.47811 46.6845 5.65091 46.5683 5.79616 46.4218L15.7337 36.4843C17.313 37.54 19.2087 38.017 21.0995 37.8348C22.9904 37.6525 24.7601 36.8223 26.1087 35.4843L29.6867 31.9063L30.14 32.3593C30.2852 32.5058 30.458 32.622 30.6485 32.7013C30.8387 32.7808 31.043 32.8215 31.2492 32.8215C31.4555 32.8215 31.6597 32.7808 31.8502 32.7013C32.0405 32.622 32.2135 32.5058 32.3587 32.3593C32.5052 32.214 32.6215 32.0413 32.7007 31.851C32.78 31.6605 32.8207 31.4563 32.8207 31.25C32.8207 31.0438 32.78 30.8395 32.7007 30.649C32.6215 30.4588 32.5052 30.2858 32.3587 30.1405L31.9055 29.6875L35.4837 26.1093C36.8242 24.7623 37.6565 22.9923 37.8387 21.1007C38.021 19.2091 37.5422 17.3127 36.4837 15.7344L46.4212 5.79689C46.5677 5.65164 46.684 5.47882 46.7632 5.28842C46.8425 5.09802 46.8832 4.89379 46.8832 4.68752C46.8832 4.48124 46.8425 4.27702 46.7632 4.08662C46.684 3.89622 46.5677 3.72339 46.4212 3.57814ZM23.8899 33.2655C22.9316 34.1683 21.6594 34.662 20.3432 34.6423C19.0269 34.6225 17.77 34.091 16.8392 33.16C15.9083 32.2293 15.3767 30.9725 15.357 29.656C15.3373 28.3398 15.8311 27.0678 16.7337 26.1093L20.3118 22.5313L27.468 29.6875L23.8899 33.2655ZM33.265 23.8906L29.6867 27.4688L22.5149 20.3125L26.093 16.7344C27.0512 15.8318 28.3235 15.338 29.6397 15.3577C30.956 15.3774 32.213 15.9091 33.1437 16.8399C34.0747 17.7708 34.6062 19.0276 34.626 20.3439C34.6457 21.6602 34.152 22.9324 33.2492 23.8906H33.265Z" fill="black"/>
</svg>
