<svg width="50" height="50" viewBox="0 0 50 50" fill="none" xmlns="http://www.w3.org/2000/svg">
<path d="M11.6184 32.6063C11.4128 32.6075 11.2089 32.568 11.0186 32.4903C10.8282 32.4125 10.6551 32.298 10.5091 32.153C10.3626 32.0078 10.2464 31.835 10.167 31.6448C10.0877 31.4543 10.0469 31.25 10.0469 31.0438C10.0469 30.8375 10.0877 30.6333 10.167 30.4428C10.2464 30.2525 10.3626 30.0795 10.5091 29.9343L18.7903 21.6687L10.5091 13.4031C10.3634 13.2574 10.2478 13.0845 10.169 12.8941C10.0901 12.7038 10.0496 12.4998 10.0496 12.2937C10.0496 12.0877 10.0901 11.8837 10.169 11.6934C10.2478 11.503 10.3634 11.3301 10.5091 11.1844C10.6548 11.0387 10.8277 10.9231 11.0181 10.8443C11.2084 10.7654 11.4124 10.7249 11.6184 10.7249C11.8245 10.7249 12.0285 10.7654 12.2188 10.8443C12.4092 10.9231 12.5821 11.0387 12.7278 11.1844L22.1028 20.5594C22.2493 20.7046 22.3655 20.8774 22.4448 21.0678C22.5242 21.2582 22.565 21.4625 22.565 21.6687C22.565 21.875 22.5242 22.0792 22.4448 22.2696C22.3655 22.4601 22.2493 22.6329 22.1028 22.7781L12.7278 32.153C12.5818 32.298 12.4087 32.4125 12.2183 32.4903C12.0279 32.568 11.8241 32.6075 11.6184 32.6063Z" fill="black"/>
<path d="M38.1797 40.4187H22.5547C22.1403 40.4187 21.7429 40.2542 21.4498 39.961C21.1568 39.668 20.9922 39.2707 20.9922 38.8562C20.9922 38.4417 21.1568 38.0445 21.4498 37.7515C21.7429 37.4582 22.1403 37.2937 22.5547 37.2937H38.1797C38.5942 37.2937 38.9914 37.4582 39.2844 37.7515C39.5777 38.0445 39.7422 38.4417 39.7422 38.8562C39.7422 39.2707 39.5777 39.668 39.2844 39.961C38.9914 40.2542 38.5942 40.4187 38.1797 40.4187Z" fill="black"/>
</svg>
