<svg width="50" height="50" viewBox="0 0 50 50" fill="none" xmlns="http://www.w3.org/2000/svg">
<path d="M31.2493 2.08337H8.33268C6.04102 2.08337 4.16602 3.95837 4.16602 6.25004V33.3334C4.16602 34.4792 5.10352 35.4167 6.24935 35.4167C7.39518 35.4167 8.33268 34.4792 8.33268 33.3334V8.33337C8.33268 7.18754 9.27018 6.25004 10.416 6.25004H31.2493C32.3952 6.25004 33.3327 5.31254 33.3327 4.16671C33.3327 3.02087 32.3952 2.08337 31.2493 2.08337ZM39.5827 10.4167H16.666C14.3743 10.4167 12.4993 12.2917 12.4993 14.5834V43.75C12.4993 46.0417 14.3743 47.9167 16.666 47.9167H39.5827C41.8743 47.9167 43.7493 46.0417 43.7493 43.75V14.5834C43.7493 12.2917 41.8743 10.4167 39.5827 10.4167ZM37.4993 43.75H18.7493C17.6035 43.75 16.666 42.8125 16.666 41.6667V16.6667C16.666 15.5209 17.6035 14.5834 18.7493 14.5834H37.4993C38.6452 14.5834 39.5827 15.5209 39.5827 16.6667V41.6667C39.5827 42.8125 38.6452 43.75 37.4993 43.75Z" fill="black"/>
<path fill-rule="evenodd" clip-rule="evenodd" d="M8.33268 2.08337H31.2493C32.3952 2.08337 33.3327 3.02087 33.3327 4.16671C33.3327 5.31254 32.3952 6.25004 31.2493 6.25004H10.416C9.27018 6.25004 8.33268 7.18754 8.33268 8.33337V33.3334C8.33268 34.4792 7.39518 35.4167 6.24935 35.4167C5.10352 35.4167 4.16602 34.4792 4.16602 33.3334V6.25004C4.16602 3.95837 6.04102 2.08337 8.33268 2.08337ZM16.666 10.4167H39.5827C41.8743 10.4167 43.7493 12.2917 43.7493 14.5834V43.75C43.7493 46.0417 41.8743 47.9167 39.5827 47.9167H16.666C14.3743 47.9167 12.4993 46.0417 12.4993 43.75V14.5834C12.4993 12.2917 14.3743 10.4167 16.666 10.4167ZM18.7493 43.75H37.4993C38.6452 43.75 39.5827 42.8125 39.5827 41.6667V16.6667C39.5827 15.5209 38.6452 14.5834 37.4993 14.5834H18.7493C17.6035 14.5834 16.666 15.5209 16.666 16.6667V41.6667C16.666 42.8125 17.6035 43.75 18.7493 43.75Z" fill="black"/>
</svg>
