<svg width="50" height="50" viewBox="0 0 50 50" fill="none" xmlns="http://www.w3.org/2000/svg">
<path d="M37.0469 22.3281L24.5469 9.82812C24.2491 9.54022 23.8517 9.37797 23.4375 9.375H14.0625C13.6485 9.3762 13.2517 9.5412 12.959 9.83397C12.6662 10.1267 12.5012 10.5235 12.5 10.9375V39.0625C12.5012 39.4766 12.6662 39.8733 12.959 40.1661C13.2517 40.4588 13.6485 40.6238 14.0625 40.625H35.9375C36.3516 40.6238 36.7483 40.4588 37.0411 40.1661C37.3338 39.8733 37.4988 39.4766 37.5 39.0625V23.4375C37.497 23.0233 37.3347 22.6261 37.0469 22.3281ZM25 14.7031L32.125 21.8281L25 21.875V14.7031ZM34.375 37.5H15.625V12.5H21.875V23.4375C21.878 23.8517 22.0403 24.2489 22.3281 24.5469C22.6237 24.8383 23.0225 25.0011 23.4375 25L34.375 24.9531V37.5Z" fill="black"/>
</svg>
