<svg width="50" height="50" viewBox="0 0 50 50" fill="none" xmlns="http://www.w3.org/2000/svg">
<path d="M10.7129 37.0465C10.2985 37.0465 9.90107 36.882 9.60804 36.5888C9.31502 36.2958 9.15039 35.8985 9.15039 35.484V7.35901C9.15039 6.94461 9.31502 6.54718 9.60804 6.25416C9.90107 5.96113 10.2985 5.79651 10.7129 5.79651H21.6504C22.0648 5.79651 22.4622 5.96113 22.7552 6.25416C23.0483 6.54718 23.2129 6.94461 23.2129 7.35901C23.2129 7.77341 23.0483 8.17083 22.7552 8.46386C22.4622 8.75688 22.0648 8.92151 21.6504 8.92151H12.2754V35.484C12.2754 35.8985 12.1108 36.2958 11.8177 36.5888C11.5247 36.882 11.1273 37.0465 10.7129 37.0465Z" fill="black"/>
<path d="M39.9471 24.9996L27.4473 12.4996C27.1494 12.2117 26.7521 12.0495 26.3379 12.0465H16.9629C16.5489 12.0477 16.1521 12.2127 15.8594 12.5055C15.5666 12.7982 15.4016 13.195 15.4004 13.609V41.734C15.4016 42.148 15.5666 42.5448 15.8594 42.8375C16.1521 43.1303 16.5489 43.2953 16.9629 43.2965H38.8379C39.2519 43.2953 39.6486 43.1303 39.9414 42.8375C40.2341 42.5448 40.3991 42.148 40.4004 41.734V26.109C40.3974 25.6948 40.2351 25.2976 39.9471 24.9996ZM27.9004 17.3746L35.0254 24.4996L27.9004 24.5465V17.3746ZM37.2754 40.1715H18.5254V15.1715H24.7754V26.109C24.7784 26.5233 24.9407 26.9205 25.2285 27.2184C25.5241 27.5098 25.9228 27.6728 26.3379 27.6715L37.2754 27.6246V40.1715Z" fill="black"/>
</svg>
