<svg width="50" height="50" viewBox="0 0 50 50" fill="none" xmlns="http://www.w3.org/2000/svg">
<path d="M42.1875 15.625H25.6406L19.8594 9.82815C19.7134 9.68334 19.5402 9.56876 19.3498 9.49101C19.1595 9.41325 18.9556 9.37384 18.75 9.37503H7.8125C7.39809 9.37503 7.00067 9.53964 6.70764 9.83267C6.41463 10.1257 6.25 10.5231 6.25 10.9375V39.0625C6.25 39.4769 6.41463 39.8744 6.70764 40.1673C7.00067 40.4605 7.39809 40.625 7.8125 40.625H42.1875C42.6019 40.625 42.9994 40.4605 43.2923 40.1673C43.5853 39.8744 43.75 39.4769 43.75 39.0625V17.1875C43.75 16.7731 43.5853 16.3756 43.2923 16.0827C42.9994 15.7897 42.6019 15.625 42.1875 15.625ZM9.375 12.5H18.1094L21.2344 15.625H9.375V12.5ZM40.625 37.5H9.375V18.75H40.625V37.5Z" fill="black"/>
</svg>
