<svg width="50" height="50" viewBox="0 0 50 50" fill="none" xmlns="http://www.w3.org/2000/svg">
<path d="M45.4405 40.5921C45.4391 41.0507 45.2563 41.4903 44.9319 41.8147C44.6076 42.139 44.168 42.3218 43.7093 42.3232H38.5158V47.5167C38.5158 47.9759 38.3336 48.416 38.0087 48.7407C37.684 49.0656 37.2439 49.2478 36.7847 49.2478C36.3254 49.2478 35.8853 49.0656 35.5607 48.7407C35.2358 48.416 35.0535 47.9759 35.0535 47.5167V42.3232H29.8601C29.4008 42.3232 28.9607 42.141 28.6361 41.816C28.3112 41.4914 28.1289 41.0513 28.1289 40.5921C28.1289 40.1328 28.3112 39.6927 28.6361 39.3681C28.9607 39.0432 29.4008 38.8609 29.8601 38.8609H35.0535V33.6674C35.0535 33.2082 35.2358 32.7681 35.5607 32.4434C35.8853 32.1185 36.3254 31.9363 36.7847 31.9363C37.2439 31.9363 37.684 32.1185 38.0087 32.4434C38.3336 32.7681 38.5158 33.2082 38.5158 33.6674V38.8609H43.7093C44.168 38.8623 44.6076 39.0451 44.9319 39.3694C45.2563 39.6938 45.4391 40.1334 45.4405 40.5921Z" fill="black"/>
<path d="M38.0127 22.0515L24.1636 8.20223C23.8336 7.88325 23.3935 7.70349 22.9345 7.7002H12.5476C12.0888 7.70152 11.6493 7.88433 11.3249 8.20871C11.0005 8.53306 10.8177 8.97264 10.8164 9.43135V40.5921C10.8177 41.0508 11.0005 41.4904 11.3249 41.8147C11.6493 42.1391 12.0888 42.3219 12.5476 42.3233H22.9345C23.3936 42.3233 23.8339 42.141 24.1586 41.8161C24.4833 41.4915 24.6656 41.0514 24.6656 40.5921C24.6656 40.1329 24.4832 39.6928 24.1586 39.3681C23.8339 39.0432 23.3936 38.861 22.9345 38.861H14.2787V11.1625H21.2033V23.2806C21.2067 23.7396 21.3865 24.1796 21.7054 24.5097C22.0328 24.8326 22.4746 25.0131 22.9345 25.0117L35.0526 24.9598V26.7429C35.0526 27.2021 35.2348 27.6423 35.5597 27.9669C35.8844 28.2918 36.3245 28.4741 36.7837 28.4741C37.243 28.4741 37.6831 28.2918 38.0077 27.9669C38.3326 27.6423 38.5149 27.2021 38.5149 26.7429V23.2806C38.5116 22.8216 38.3318 22.3816 38.0127 22.0515ZM24.6656 21.5494V13.6034L32.5597 21.4975L24.6656 21.5494Z" fill="black"/>
</svg>
