<svg width="50" height="50" viewBox="0 0 50 50" fill="none" xmlns="http://www.w3.org/2000/svg">
<path d="M48.125 22.5C47.9795 22.3058 47.7907 22.1483 47.5737 22.0398C47.3567 21.9313 47.1175 21.8749 46.875 21.875H43.75V17.1875C43.7487 16.7735 43.5838 16.3767 43.291 16.084C42.9983 15.7912 42.6015 15.6262 42.1875 15.625H25.6405L19.8594 9.82813C19.5615 9.54023 19.1643 9.37797 18.75 9.375H7.8125C7.39847 9.3762 7.00172 9.5412 6.70897 9.83397C6.4162 10.1267 6.2512 10.5235 6.25 10.9375V39.0625C6.2512 39.4765 6.4162 39.8733 6.70897 40.166C7.00172 40.4588 7.39847 40.6237 7.8125 40.625H42.1875C42.523 40.624 42.8495 40.5157 43.1192 40.3162C43.3892 40.1167 43.5883 39.8363 43.6875 39.5158L48.375 23.8906C48.444 23.6553 48.4575 23.4072 48.414 23.1658C48.3705 22.9245 48.2717 22.6965 48.125 22.5ZM9.375 12.5H18.1094L23.8906 18.2969C24.1885 18.5848 24.5857 18.747 25 18.75H40.625V21.875H12.5C12.1644 21.876 11.838 21.9842 11.5681 22.1838C11.2983 22.3833 11.0993 22.6638 11 22.9844L9.375 28.4063V12.5ZM41.0313 37.5H9.90625L13.6563 25H44.7813L41.0313 37.5Z" fill="black"/>
</svg>
