<svg width="50" height="50" viewBox="0 0 50 50" fill="none" xmlns="http://www.w3.org/2000/svg">
<g clip-path="url(#clip0_1_1446)">
<mask id="mask0_1_1446" style="mask-type:luminance" maskUnits="userSpaceOnUse" x="0" y="0" width="50" height="50">
<path d="M50 0H0V50H50V0Z" fill="white"/>
</mask>
<g mask="url(#mask0_1_1446)">
<path d="M24.3781 46.875C30.1798 46.875 35.7438 44.5703 39.8461 40.468C43.9486 36.3655 46.2531 30.8015 46.2531 25C46.2531 24.5856 46.0886 24.1882 45.7956 23.8952C45.5026 23.6021 45.1051 23.4375 44.6906 23.4375C44.2763 23.4375 43.8788 23.6021 43.5858 23.8952C43.2928 24.1882 43.1281 24.5856 43.1281 25C43.1273 29.2875 41.6571 33.4453 38.9623 36.7803C36.2676 40.1153 32.5113 42.426 28.3196 43.3273C24.1278 44.2285 19.7537 43.666 15.9264 41.7333C12.0991 39.8008 9.04985 36.6148 7.28675 32.7063C5.52367 28.798 5.15332 24.4035 6.23745 20.2553C7.32157 16.107 9.79465 12.4556 13.2445 9.90966C16.6944 7.36371 20.9126 6.07703 25.1961 6.26406C29.4796 6.45111 33.5696 8.10056 36.7843 10.9375H29.0656C28.6513 10.9375 28.2538 11.1021 27.9608 11.3952C27.6678 11.6882 27.5031 12.0856 27.5031 12.5C27.5031 12.9144 27.6678 13.3118 27.9608 13.6049C28.2538 13.8979 28.6513 14.0625 29.0656 14.0625H40.0031C40.4176 14.0625 40.8151 13.8979 41.1081 13.6049C41.4011 13.3118 41.5656 12.9144 41.5656 12.5V1.5625C41.5656 1.1481 41.4011 0.75067 41.1081 0.457645C40.8151 0.16462 40.4176 0 40.0031 0C39.5888 -2.5e-08 39.1913 0.16462 38.8983 0.457645C38.6053 0.75067 38.4406 1.1481 38.4406 1.5625V8.25001C35.7473 5.98766 32.5481 4.40818 29.1143 3.64546C25.6806 2.88276 22.1137 2.95931 18.7158 3.86866C15.318 4.77798 12.1895 6.49331 9.59577 8.86911C7.002 11.2449 5.01937 14.2112 3.81602 17.5164C2.61267 20.8215 2.22412 24.3682 2.68327 27.8555C3.14242 31.3428 4.43575 34.668 6.45357 37.549C8.47142 40.43 11.1542 42.782 14.2746 44.4055C17.3949 46.029 20.8607 46.8763 24.3781 46.875Z" fill="black"/>
</g>
</g>
<defs>
<clipPath id="clip0_1_1446">
<rect width="50" height="50" fill="white"/>
</clipPath>
</defs>
</svg>
