<svg width="50" height="50" viewBox="0 0 50 50" fill="none" xmlns="http://www.w3.org/2000/svg">
<path d="M14.0625 42.1875C13.6481 42.1875 13.2508 42.0228 12.9578 41.7298C12.6648 41.4368 12.5001 41.0395 12.5 40.625V9.37502C12.5001 9.09972 12.5729 8.82935 12.711 8.5912C12.8492 8.35307 13.0478 8.15565 13.2867 8.01892C13.5256 7.88217 13.7964 7.81097 14.0717 7.81252C14.347 7.81407 14.6171 7.8883 14.8544 8.0277L41.417 23.6527C41.6515 23.7907 41.846 23.9877 41.9812 24.224C42.1165 24.4603 42.1875 24.7278 42.1875 25C42.1875 25.2723 42.1165 25.5398 41.9812 25.776C41.846 26.0125 41.6515 26.2092 41.417 26.3475L14.8544 41.9725C14.6144 42.1135 14.341 42.1877 14.0625 42.1875ZM15.625 12.1063V37.8938L37.5428 25L15.625 12.1063Z" fill="black"/>
</svg>
