<svg width="20" height="20" viewBox="0 0 20 20" fill="none" xmlns="http://www.w3.org/2000/svg">
<path d="M9.01251 8.125L11.875 10.9937L9.01251 8.125Z" fill="black"/>
<path d="M18.5688 1.43124C18.5107 1.37266 18.4415 1.32617 18.3654 1.29444C18.2892 1.2627 18.2075 1.24637 18.125 1.24637C18.0425 1.24637 17.9608 1.2627 17.8847 1.29444C17.8085 1.32617 17.7394 1.37266 17.6813 1.43124L13.7063 5.40624C13.0749 4.98284 12.3164 4.7913 11.5598 4.86423C10.8031 4.93716 10.0951 5.27005 9.55627 5.80624L8.12502 7.23749L7.94377 7.05624C7.82608 6.93855 7.66646 6.87244 7.50002 6.87244C7.33358 6.87244 7.17396 6.93855 7.05627 7.05624C6.93858 7.17393 6.87247 7.33355 6.87247 7.49999C6.87247 7.66643 6.93858 7.82605 7.05627 7.94374L7.23752 8.12499L5.80627 9.55624C5.27008 10.0951 4.93719 10.8031 4.86426 11.5597C4.79133 12.3164 4.98287 13.0749 5.40627 13.7062L1.43127 17.6812C1.37269 17.7393 1.3262 17.8085 1.29447 17.8846C1.26274 17.9608 1.2464 18.0425 1.2464 18.125C1.2464 18.2075 1.26274 18.2892 1.29447 18.3654C1.3262 18.4415 1.37269 18.5106 1.43127 18.5687C1.48937 18.6273 1.5585 18.6738 1.63466 18.7055C1.71082 18.7373 1.79252 18.7536 1.87502 18.7536C1.95753 18.7536 2.03922 18.7373 2.11538 18.7055C2.19155 18.6738 2.26067 18.6273 2.31877 18.5687L6.29377 14.5937C6.92549 15.016 7.68378 15.2068 8.44012 15.1339C9.19646 15.061 9.90433 14.7289 10.4438 14.1937L11.875 12.7625L12.0563 12.9437C12.1144 13.0023 12.1835 13.0488 12.2597 13.0805C12.3358 13.1123 12.4175 13.1286 12.5 13.1286C12.5825 13.1286 12.6642 13.1123 12.7404 13.0805C12.8165 13.0488 12.8857 13.0023 12.9438 12.9437C13.0024 12.8856 13.0489 12.8165 13.0806 12.7404C13.1123 12.6642 13.1286 12.5825 13.1286 12.5C13.1286 12.4175 13.1123 12.3358 13.0806 12.2596C13.0489 12.1835 13.0024 12.1143 12.9438 12.0562L12.7625 11.875L14.1938 10.4437C14.73 9.90491 15.0629 9.19691 15.1358 8.44026C15.2087 7.68361 15.0172 6.92507 14.5938 6.29374L18.5688 2.31874C18.6274 2.26064 18.6739 2.19151 18.7056 2.11535C18.7373 2.03919 18.7536 1.9575 18.7536 1.87499C18.7536 1.79248 18.7373 1.71079 18.7056 1.63463C18.6739 1.55847 18.6274 1.48934 18.5688 1.43124V1.43124ZM9.55627 13.3062C9.17296 13.6673 8.66408 13.8648 8.13757 13.8569C7.61106 13.849 7.10832 13.6364 6.73598 13.264C6.36364 12.8917 6.15098 12.389 6.1431 11.8624C6.13522 11.3359 6.33274 10.8271 6.69377 10.4437L8.12502 9.01249L10.9875 11.875L9.55627 13.3062ZM13.3063 9.55624L11.875 10.9875L9.00627 8.12499L10.4375 6.69374C10.8208 6.33271 11.3297 6.13519 11.8562 6.14307C12.3827 6.15095 12.8855 6.36361 13.2578 6.73595C13.6302 7.10829 13.8428 7.61103 13.8507 8.13754C13.8586 8.66405 13.6611 9.17293 13.3 9.55624H13.3063Z" fill="black"/>
</svg>
