<svg width="20" height="20" viewBox="0 0 20 20" fill="none" xmlns="http://www.w3.org/2000/svg">
<path d="M11.25 14.375C11.1677 14.3755 11.0862 14.3597 11.0101 14.3286C10.9339 14.2975 10.8646 14.2517 10.8062 14.1937L7.05624 10.4437C6.99766 10.3856 6.95117 10.3165 6.91944 10.2404C6.8877 10.1642 6.87137 10.0825 6.87137 9.99999C6.87137 9.91749 6.8877 9.83579 6.91944 9.75963C6.95117 9.68347 6.99766 9.61435 7.05624 9.55624L10.8062 5.80624C10.8645 5.74797 10.9337 5.70174 11.0098 5.67021C11.086 5.63867 11.1676 5.62244 11.25 5.62244C11.3324 5.62244 11.414 5.63867 11.4901 5.67021C11.5663 5.70174 11.6355 5.74797 11.6937 5.80624C11.752 5.86452 11.7982 5.9337 11.8298 6.00984C11.8613 6.08598 11.8775 6.16758 11.8775 6.24999C11.8775 6.33241 11.8613 6.41401 11.8298 6.49015C11.7982 6.56629 11.752 6.63547 11.6937 6.69374L8.38124 9.99999L11.6937 13.3062C11.7523 13.3643 11.7988 13.4335 11.8305 13.5096C11.8623 13.5858 11.8786 13.6675 11.8786 13.75C11.8786 13.8325 11.8623 13.9142 11.8305 13.9904C11.7988 14.0665 11.7523 14.1356 11.6937 14.1937C11.6353 14.2517 11.5661 14.2975 11.4899 14.3286C11.4138 14.3597 11.3322 14.3755 11.25 14.375Z" fill="black"/>
</svg>
