<svg width="20" height="20" viewBox="0 0 20 20" fill="none" xmlns="http://www.w3.org/2000/svg">
<path d="M8.74999 14.375C8.66774 14.3755 8.5862 14.3597 8.51005 14.3286C8.4339 14.2975 8.36464 14.2517 8.30624 14.1937C8.24766 14.1356 8.20117 14.0665 8.16944 13.9904C8.1377 13.9142 8.12137 13.8325 8.12137 13.75C8.12137 13.6675 8.1377 13.5858 8.16944 13.5096C8.20117 13.4335 8.24766 13.3643 8.30624 13.3062L11.6187 9.99999L8.30624 6.69374C8.18855 6.57605 8.12244 6.41643 8.12244 6.24999C8.12244 6.08355 8.18855 5.92393 8.30624 5.80624C8.42393 5.68855 8.58355 5.62244 8.74999 5.62244C8.91643 5.62244 9.07605 5.68855 9.19374 5.80624L12.9437 9.55624C13.0023 9.61435 13.0488 9.68347 13.0805 9.75963C13.1123 9.83579 13.1286 9.91749 13.1286 9.99999C13.1286 10.0825 13.1123 10.1642 13.0805 10.2404C13.0488 10.3165 13.0023 10.3856 12.9437 10.4437L9.19374 14.1937C9.13534 14.2517 9.06608 14.2975 8.98993 14.3286C8.91379 14.3597 8.83225 14.3755 8.74999 14.375Z" fill="black"/>
</svg>
