<svg width="60" height="60" viewBox="0 0 60 60" fill="none" xmlns="http://www.w3.org/2000/svg">
<path d="M37.5 2.5H10C7.25 2.5 5 4.75 5 7.5V40C5 41.375 6.125 42.5 7.5 42.5C8.875 42.5 10 41.375 10 40V10C10 8.625 11.125 7.5 12.5 7.5H37.5C38.875 7.5 40 6.375 40 5C40 3.625 38.875 2.5 37.5 2.5ZM47.5 12.5H20C17.25 12.5 15 14.75 15 17.5V52.5C15 55.25 17.25 57.5 20 57.5H47.5C50.25 57.5 52.5 55.25 52.5 52.5V17.5C52.5 14.75 50.25 12.5 47.5 12.5ZM45 52.5H22.5C21.125 52.5 20 51.375 20 50V20C20 18.625 21.125 17.5 22.5 17.5H45C46.375 17.5 47.5 18.625 47.5 20V50C47.5 51.375 46.375 52.5 45 52.5Z" fill="black"/>
<path fill-rule="evenodd" clip-rule="evenodd" d="M10 2.5H37.5C38.875 2.5 40 3.625 40 5C40 6.375 38.875 7.5 37.5 7.5H12.5C11.125 7.5 10 8.625 10 10V40C10 41.375 8.875 42.5 7.5 42.5C6.125 42.5 5 41.375 5 40V7.5C5 4.75 7.25 2.5 10 2.5ZM20 12.5H47.5C50.25 12.5 52.5 14.75 52.5 17.5V52.5C52.5 55.25 50.25 57.5 47.5 57.5H20C17.25 57.5 15 55.25 15 52.5V17.5C15 14.75 17.25 12.5 20 12.5ZM22.5 52.5H45C46.375 52.5 47.5 51.375 47.5 50V20C47.5 18.625 46.375 17.5 45 17.5H22.5C21.125 17.5 20 18.625 20 20V50C20 51.375 21.125 52.5 22.5 52.5Z" fill="black"/>
</svg>
