<svg width="20" height="20" viewBox="0 0 20 20" fill="none" xmlns="http://www.w3.org/2000/svg">
<path d="M18.5687 1.43124C18.5106 1.37266 18.4415 1.32617 18.3654 1.29444C18.2892 1.2627 18.2075 1.24637 18.125 1.24637C18.0425 1.24637 17.9608 1.2627 17.8846 1.29444C17.8085 1.32617 17.7393 1.37266 17.6812 1.43124L15.5812 3.53124C14.9499 3.10784 14.1914 2.9163 13.4347 2.98923C12.6781 3.06216 11.9701 3.39505 11.4312 3.93124L10.625 4.73749L10.4437 4.55624C10.3855 4.49797 10.3163 4.45174 10.2401 4.42021C10.164 4.38867 10.0824 4.37244 9.99999 4.37244C9.83356 4.37244 9.67393 4.43855 9.55624 4.55624C9.49797 4.61452 9.45174 4.6837 9.42021 4.75984C9.38867 4.83598 9.37244 4.91758 9.37244 4.99999C9.37244 5.16643 9.43855 5.32605 9.55624 5.44374L14.5562 10.4437C14.6143 10.5023 14.6835 10.5488 14.7596 10.5805C14.8358 10.6123 14.9175 10.6286 15 10.6286C15.0825 10.6286 15.1642 10.6123 15.2404 10.5805C15.3165 10.5488 15.3856 10.5023 15.4437 10.4437C15.5023 10.3856 15.5488 10.3165 15.5806 10.2404C15.6123 10.1642 15.6286 10.0825 15.6286 9.99999C15.6286 9.91748 15.6123 9.83579 15.5806 9.75963C15.5488 9.68347 15.5023 9.61434 15.4437 9.55624L15.2625 9.37499L16.0687 8.56874C16.6049 8.02991 16.9378 7.32191 17.0108 6.56526C17.0837 5.80861 16.8921 5.05007 16.4687 4.41874L18.5687 2.31874C18.6273 2.26064 18.6738 2.19151 18.7056 2.11535C18.7373 2.03919 18.7536 1.9575 18.7536 1.87499C18.7536 1.79248 18.7373 1.71079 18.7056 1.63463C18.6738 1.55847 18.6273 1.48934 18.5687 1.43124V1.43124ZM15.1812 7.68124L14.375 8.48749L11.5062 5.62499L12.3125 4.81874C12.6958 4.45771 13.2047 4.26019 13.7312 4.26807C14.2577 4.27595 14.7604 4.48861 15.1328 4.86095C15.5051 5.23329 15.7178 5.73603 15.7257 6.26254C15.7335 6.78905 15.536 7.29793 15.175 7.68124H15.1812Z" fill="black"/>
<path d="M14.375 8.4875V8.49375L11.5063 5.625H11.5125L14.375 8.4875Z" fill="black"/>
<path d="M11.6938 10.1812C11.6357 10.1227 11.5665 10.0762 11.4904 10.0444C11.4142 10.0127 11.3325 9.99637 11.25 9.99637C11.1675 9.99637 11.0858 10.0127 11.0097 10.0444C10.9335 10.0762 10.8644 10.1227 10.8063 10.1812L9.06252 11.925L8.07502 10.9375L9.81877 9.19374C9.93646 9.07605 10.0026 8.91643 10.0026 8.74999C10.0026 8.58356 9.93646 8.42393 9.81877 8.30624C9.70108 8.18855 9.54146 8.12244 9.37502 8.12244C9.20858 8.12244 9.04896 8.18855 8.93127 8.30624L7.18752 10.05L6.06877 8.93124C5.95108 8.81355 5.79146 8.74744 5.62502 8.74744C5.45858 8.74744 5.29896 8.81355 5.18127 8.93124C5.06358 9.04893 4.99747 9.20856 4.99747 9.37499C4.99747 9.54143 5.06358 9.70105 5.18127 9.81874L5.36252 9.99999L3.93127 11.4312C3.39508 11.9701 3.06219 12.6781 2.98926 13.4347C2.91633 14.1914 3.10787 14.9499 3.53127 15.5812L1.43127 17.6812C1.37269 17.7393 1.3262 17.8085 1.29447 17.8846C1.26274 17.9608 1.2464 18.0425 1.2464 18.125C1.2464 18.2075 1.26274 18.2892 1.29447 18.3654C1.3262 18.4415 1.37269 18.5106 1.43127 18.5687C1.48937 18.6273 1.5585 18.6738 1.63466 18.7056C1.71082 18.7373 1.79252 18.7536 1.87502 18.7536C1.95753 18.7536 2.03922 18.7373 2.11538 18.7056C2.19155 18.6738 2.26067 18.6273 2.31877 18.5687L4.41877 16.4687C5.05049 16.891 5.80878 17.0818 6.56512 17.0089C7.32146 16.936 8.02933 16.6039 8.56877 16.0687L10 14.6375L10.1813 14.8187C10.2394 14.8773 10.3085 14.9238 10.3847 14.9556C10.4608 14.9873 10.5425 15.0036 10.625 15.0036C10.7075 15.0036 10.7892 14.9873 10.8654 14.9556C10.9415 14.9238 11.0107 14.8773 11.0688 14.8187C11.1274 14.7606 11.1739 14.6915 11.2056 14.6154C11.2373 14.5392 11.2536 14.4575 11.2536 14.375C11.2536 14.2925 11.2373 14.2108 11.2056 14.1346C11.1739 14.0585 11.1274 13.9893 11.0688 13.9312L10.4438 13.3062L9.95002 12.8125L11.6938 11.0687C11.7524 11.0106 11.7989 10.9415 11.8306 10.8654C11.8623 10.7892 11.8786 10.7075 11.8786 10.625C11.8786 10.5425 11.8623 10.4608 11.8306 10.3846C11.7989 10.3085 11.7524 10.2393 11.6938 10.1812V10.1812ZM7.68127 15.1812C7.29796 15.5423 6.78908 15.7398 6.26257 15.7319C5.73606 15.724 5.23332 15.5114 4.86098 15.139C4.48864 14.7667 4.27598 14.264 4.2681 13.7374C4.26022 13.2109 4.45774 12.7021 4.81877 12.3187L6.25002 10.8875L9.11252 13.75L7.68127 15.1812Z" fill="black"/>
</svg>
