<svg width="20" height="20" viewBox="0 0 20 20" fill="none" xmlns="http://www.w3.org/2000/svg">
<path d="M17.5 15.625C17.4995 15.7906 17.4335 15.9493 17.3164 16.0664C17.1993 16.1835 17.0406 16.2495 16.875 16.25H15V18.125C15 18.2908 14.9342 18.4497 14.8169 18.5669C14.6997 18.6842 14.5408 18.75 14.375 18.75C14.2092 18.75 14.0503 18.6842 13.9331 18.5669C13.8158 18.4497 13.75 18.2908 13.75 18.125V16.25H11.875C11.7092 16.25 11.5503 16.1842 11.4331 16.0669C11.3158 15.9497 11.25 15.7908 11.25 15.625C11.25 15.4592 11.3158 15.3003 11.4331 15.1831C11.5503 15.0658 11.7092 15 11.875 15H13.75V13.125C13.75 12.9592 13.8158 12.8003 13.9331 12.6831C14.0503 12.5658 14.2092 12.5 14.375 12.5C14.5408 12.5 14.6997 12.5658 14.8169 12.6831C14.9342 12.8003 15 12.9592 15 13.125V15H16.875C17.0406 15.0005 17.1993 15.0665 17.3164 15.1836C17.4335 15.3007 17.4995 15.4594 17.5 15.625Z" fill="black"/>
<path d="M14.8187 8.93125L9.81875 3.93125C9.6996 3.81609 9.5407 3.75119 9.375 3.75H5.625C5.45939 3.75048 5.30069 3.81648 5.18359 3.93359C5.06648 4.05069 5.00048 4.20939 5 4.375V15.625C5.00048 15.7906 5.06648 15.9493 5.18359 16.0664C5.30069 16.1835 5.45939 16.2495 5.625 16.25H9.375C9.54076 16.25 9.69973 16.1842 9.81694 16.0669C9.93415 15.9497 10 15.7908 10 15.625C10 15.4592 9.93415 15.3003 9.81694 15.1831C9.69973 15.0658 9.54076 15 9.375 15H6.25V5H8.75V9.375C8.75121 9.5407 8.81611 9.69958 8.93125 9.81875C9.04948 9.93532 9.20897 10.0005 9.375 10L13.75 9.98125V10.625C13.75 10.7908 13.8158 10.9497 13.9331 11.0669C14.0503 11.1842 14.2092 11.25 14.375 11.25C14.5408 11.25 14.6997 11.1842 14.8169 11.0669C14.9342 10.9497 15 10.7908 15 10.625V9.375C14.9988 9.2093 14.9339 9.05042 14.8187 8.93125ZM10 8.75V5.88125L12.85 8.73125L10 8.75Z" fill="black"/>
</svg>
