<svg width="20" height="20" viewBox="0 0 20 20" fill="none" xmlns="http://www.w3.org/2000/svg">
<path d="M19.25 9C19.1918 8.92234 19.1163 8.85932 19.0295 8.81592C18.9427 8.77253 18.847 8.74996 18.75 8.75H17.5V6.875C17.4995 6.70939 17.4335 6.55069 17.3164 6.43359C17.1993 6.31648 17.0406 6.25048 16.875 6.25H10.2562L7.94375 3.93125C7.8246 3.81609 7.6657 3.75119 7.5 3.75H3.125C2.95939 3.75048 2.80069 3.81648 2.68359 3.93359C2.56648 4.05069 2.50048 4.20939 2.5 4.375V15.625C2.50048 15.7906 2.56648 15.9493 2.68359 16.0664C2.80069 16.1835 2.95939 16.2495 3.125 16.25H16.875C17.0092 16.2496 17.1398 16.2063 17.2477 16.1265C17.3557 16.0467 17.4353 15.9345 17.475 15.8063L19.35 9.55625C19.3776 9.46213 19.383 9.36287 19.3656 9.26633C19.3482 9.16979 19.3087 9.07861 19.25 9ZM3.75 5H7.24375L9.55625 7.31875C9.6754 7.43391 9.8343 7.49881 10 7.5H16.25V8.75H5C4.86577 8.75042 4.73518 8.79369 4.62725 8.87351C4.51933 8.95333 4.43971 9.06553 4.4 9.19375L3.75 11.3625V5ZM16.4125 15H3.9625L5.4625 10H17.9125L16.4125 15Z" fill="black"/>
</svg>
