<svg width="20" height="20" viewBox="0 0 20 20" fill="none" xmlns="http://www.w3.org/2000/svg">
<path d="M4.99999 13.125C4.91774 13.1255 4.8362 13.1097 4.76005 13.0786C4.6839 13.0475 4.61464 13.0017 4.55624 12.9437C4.49766 12.8856 4.45117 12.8165 4.41944 12.7404C4.3877 12.6642 4.37137 12.5825 4.37137 12.5C4.37137 12.4175 4.3877 12.3358 4.41944 12.2596C4.45117 12.1835 4.49766 12.1143 4.55624 12.0562L7.86874 8.74999L4.55624 5.44374C4.49797 5.38547 4.45174 5.31629 4.42021 5.24015C4.38867 5.16401 4.37244 5.08241 4.37244 4.99999C4.37244 4.91758 4.38867 4.83598 4.42021 4.75984C4.45174 4.6837 4.49797 4.61452 4.55624 4.55624C4.61452 4.49797 4.6837 4.45174 4.75984 4.42021C4.83598 4.38867 4.91758 4.37244 4.99999 4.37244C5.0824 4.37244 5.16401 4.38867 5.24015 4.42021C5.31629 4.45174 5.38547 4.49797 5.44374 4.55624L9.19374 8.30624C9.25232 8.36435 9.29882 8.43347 9.33055 8.50963C9.36228 8.58579 9.37862 8.66749 9.37862 8.74999C9.37862 8.8325 9.36228 8.91419 9.33055 8.99035C9.29882 9.06652 9.25232 9.13564 9.19374 9.19374L5.44374 12.9437C5.38534 13.0017 5.31608 13.0475 5.23993 13.0786C5.16379 13.1097 5.08225 13.1255 4.99999 13.125Z" fill="black"/>
<path d="M15.625 16.25H9.375C9.20924 16.25 9.05027 16.1842 8.93306 16.0669C8.81585 15.9497 8.75 15.7908 8.75 15.625C8.75 15.4592 8.81585 15.3003 8.93306 15.1831C9.05027 15.0658 9.20924 15 9.375 15H15.625C15.7908 15 15.9497 15.0658 16.0669 15.1831C16.1842 15.3003 16.25 15.4592 16.25 15.625C16.25 15.7908 16.1842 15.9497 16.0669 16.0669C15.9497 16.1842 15.7908 16.25 15.625 16.25Z" fill="black"/>
</svg>
