<svg width="20" height="20" viewBox="0 0 20 20" fill="none" xmlns="http://www.w3.org/2000/svg">
<path d="M16.95 5.44375L14.5563 3.05C14.205 2.69827 13.7284 2.50044 13.2313 2.5H3.125C2.95924 2.5 2.80027 2.56585 2.68306 2.68306C2.56585 2.80027 2.5 2.95924 2.5 3.125V16.875C2.5 17.0408 2.56585 17.1997 2.68306 17.3169C2.80027 17.4342 2.95924 17.5 3.125 17.5H16.875C17.0408 17.5 17.1997 17.4342 17.3169 17.3169C17.4342 17.1997 17.5 17.0408 17.5 16.875V6.76875C17.4996 6.27164 17.3017 5.79504 16.95 5.44375V5.44375ZM7.5 3.75H12.5V6.25H7.5V3.75ZM16.25 16.25H3.75V3.75H6.25V6.875C6.25 7.04076 6.31585 7.19973 6.43306 7.31694C6.55027 7.43415 6.70924 7.5 6.875 7.5H13.125C13.2908 7.5 13.4497 7.43415 13.5669 7.31694C13.6842 7.19973 13.75 7.04076 13.75 6.875V4.00625L16.0687 6.325C16.1267 6.3834 16.1725 6.45266 16.2036 6.52881C16.2347 6.60496 16.2505 6.6865 16.25 6.76875V16.25Z" fill="black"/>
<path d="M13.125 9.375H6.875C6.70924 9.375 6.55027 9.44085 6.43306 9.55806C6.31585 9.67527 6.25 9.83424 6.25 10V13.75C6.25 13.9158 6.31585 14.0747 6.43306 14.1919C6.55027 14.3092 6.70924 14.375 6.875 14.375H13.125C13.2908 14.375 13.4497 14.3092 13.5669 14.1919C13.6842 14.0747 13.75 13.9158 13.75 13.75V10C13.75 9.83424 13.6842 9.67527 13.5669 9.55806C13.4497 9.44085 13.2908 9.375 13.125 9.375ZM12.5 13.125H7.5V10.625H12.5V13.125Z" fill="black"/>
</svg>
