<svg width="20" height="20" viewBox="0 0 20 20" fill="none" xmlns="http://www.w3.org/2000/svg">
<path d="M15 15.625H5C4.91791 15.625 4.83662 15.6089 4.76077 15.5775C4.68492 15.5461 4.616 15.5001 4.55795 15.442C4.49991 15.384 4.45387 15.3151 4.42248 15.2392C4.39109 15.1634 4.37495 15.0821 4.375 15V5C4.37495 4.91791 4.39109 4.83662 4.42248 4.76077C4.45387 4.68492 4.49991 4.616 4.55795 4.55795C4.616 4.49991 4.68492 4.45387 4.76077 4.42248C4.83662 4.39109 4.91791 4.37495 5 4.375H15C15.0821 4.37495 15.1634 4.39109 15.2392 4.42248C15.3151 4.45387 15.384 4.49991 15.442 4.55795C15.5001 4.616 15.5461 4.68492 15.5775 4.76077C15.6089 4.83662 15.625 4.91791 15.625 5V15C15.625 15.0821 15.6089 15.1634 15.5775 15.2392C15.5461 15.3151 15.5001 15.384 15.442 15.442C15.384 15.5001 15.3151 15.5461 15.2392 15.5775C15.1634 15.6089 15.0821 15.625 15 15.625V15.625ZM5.625 14.375H14.375V5.625H5.625V14.375Z" fill="black"/>
</svg>
