<svg width="50" height="50" viewBox="0 0 50 50" fill="none" xmlns="http://www.w3.org/2000/svg">
<path d="M28.1243 35.9376C27.9186 35.9388 27.7148 35.8993 27.5246 35.8216C27.3341 35.7438 27.1608 35.6293 27.0148 35.4843L17.6399 26.1093C17.4935 25.9641 17.3772 25.7913 17.2979 25.6011C17.2186 25.4106 17.1777 25.2063 17.1777 25C17.1777 24.7938 17.2186 24.5895 17.2979 24.3991C17.3772 24.2087 17.4935 24.0359 17.6399 23.8907L27.0148 14.5157C27.1606 14.37 27.3336 14.2544 27.5238 14.1756C27.7143 14.0967 27.9183 14.0562 28.1243 14.0562C28.3303 14.0562 28.5343 14.0967 28.7246 14.1756C28.9151 14.2544 29.0881 14.37 29.2336 14.5157C29.3793 14.6614 29.4948 14.8343 29.5738 15.0247C29.6526 15.215 29.6931 15.419 29.6931 15.625C29.6931 15.8311 29.6526 16.0351 29.5738 16.2254C29.4948 16.4158 29.3793 16.5887 29.2336 16.7344L20.9524 25L29.2336 33.2656C29.3801 33.4108 29.4963 33.5838 29.5756 33.7741C29.6551 33.9646 29.6958 34.1688 29.6958 34.3751C29.6958 34.5813 29.6551 34.7856 29.5756 34.9761C29.4963 35.1663 29.3801 35.3391 29.2336 35.4843C29.0876 35.6293 28.9146 35.7438 28.7241 35.8216C28.5338 35.8993 28.3298 35.9388 28.1243 35.9376Z" fill="black"/>
</svg>
