<svg width="24" height="25" viewBox="0 0 24 25" fill="none" xmlns="http://www.w3.org/2000/svg">
<path d="M13.5004 17.7501C13.4017 17.7507 13.3039 17.7318 13.2126 17.6945C13.1211 17.6571 13.038 17.6022 12.9679 17.5326L8.46794 13.0326C8.39764 12.9629 8.34185 12.8799 8.30378 12.7886C8.26569 12.6972 8.24609 12.5991 8.24609 12.5001C8.24609 12.4011 8.26569 12.3031 8.30378 12.2117C8.34185 12.1203 8.39764 12.0374 8.46794 11.9676L12.9679 7.46763C13.0378 7.39771 13.1209 7.34223 13.2122 7.30439C13.3036 7.26655 13.4016 7.24707 13.5004 7.24707C13.5993 7.24707 13.6972 7.26655 13.7886 7.30439C13.88 7.34223 13.963 7.39771 14.0329 7.46763C14.1028 7.53757 14.1583 7.62058 14.1962 7.71195C14.234 7.80332 14.2534 7.90124 14.2534 8.00013C14.2534 8.09903 14.234 8.19695 14.1962 8.28832C14.1583 8.37969 14.1028 8.46271 14.0329 8.53263L10.0579 12.5001L14.0329 16.4676C14.1032 16.5373 14.159 16.6203 14.197 16.7117C14.2352 16.8031 14.2548 16.9011 14.2548 17.0001C14.2548 17.0991 14.2352 17.1972 14.197 17.2886C14.159 17.3799 14.1032 17.4629 14.0329 17.5326C13.9628 17.6022 13.8798 17.6571 13.7883 17.6945C13.697 17.7318 13.5991 17.7507 13.5004 17.7501Z" fill="white"/>
</svg>
