<?xml version="1.0" encoding="UTF-8" standalone="no"?>
<!DOCTYPE svg PUBLIC "-//W3C//DTD SVG 1.1//EN" "http://www.w3.org/Graphics/SVG/1.1/DTD/svg11.dtd">
<svg width="100%" height="100%" viewBox="0 0 64 64" version="1.1" xmlns="http://www.w3.org/2000/svg" xmlns:xlink="http://www.w3.org/1999/xlink" xml:space="preserve" xmlns:serif="http://www.serif.com/" style="fill-rule:evenodd;clip-rule:evenodd;stroke-linecap:round;stroke-linejoin:round;stroke-miterlimit:10;">
    <g transform="matrix(1,0,0,1,0,0.0003)">
        <g transform="matrix(1.04918,0,0,0.989691,-4.19672,-77.1962)">
            <rect x="4" y="78" width="61" height="64.667" style="fill:none;"/>
        </g>
        <g transform="matrix(1.19998,0,0,1.19998,-5.59986,-6.7324)">
            <g transform="matrix(-2,0,0,2,68,2.27374e-13)">
                <rect x="7" y="6" width="20" height="20" style="fill:none;stroke:black;stroke-width:1.67px;"/>
            </g>
            <g transform="matrix(-2,0,0,2,80,2.27374e-13)">
                <rect x="17" y="13" width="6" height="6" style="fill:none;stroke:black;stroke-width:1.67px;"/>
            </g>
            <g transform="matrix(-2,0,0,2,26,2.27374e-13)">
                <rect x="4" y="13" width="5" height="6" style="fill:white;stroke:black;stroke-width:1.67px;"/>
            </g>
            <g transform="matrix(2,0,0,2,30.0006,47.9994)">
                <path d="M0,2L0,0L0,2Z" style="fill:white;fill-rule:nonzero;"/>
            </g>
            <g transform="matrix(0,2,2,0,32,50)">
                <path d="M-1,-1L1,-1" style="fill:none;fill-rule:nonzero;stroke:black;stroke-width:1.67px;"/>
            </g>
            <g transform="matrix(2,0,0,2,21.9996,47.9994)">
                <path d="M0,2L0,0L0,2Z" style="fill:white;fill-rule:nonzero;"/>
            </g>
            <g transform="matrix(0,2,2,0,24,50)">
                <path d="M-1,-1L1,-1" style="fill:none;fill-rule:nonzero;stroke:black;stroke-width:1.67px;"/>
            </g>
            <g transform="matrix(2,0,0,2,37.9998,47.9994)">
                <path d="M0,2L0,0L0,2Z" style="fill:white;fill-rule:nonzero;"/>
            </g>
            <g transform="matrix(0,2,2,0,40,50)">
                <path d="M-1,-1L1,-1" style="fill:none;fill-rule:nonzero;stroke:black;stroke-width:1.67px;"/>
            </g>
            <g transform="matrix(2,0,0,2,46.0008,47.9994)">
                <path d="M0,2L0,0L0,2Z" style="fill:white;fill-rule:nonzero;"/>
            </g>
            <g transform="matrix(0,2,2,0,48,50)">
                <path d="M-1,-1L1,-1" style="fill:none;fill-rule:nonzero;stroke:black;stroke-width:1.67px;"/>
            </g>
            <g transform="matrix(2,0,0,2,30.0006,11.9994)">
                <path d="M0,2L0,0L0,2Z" style="fill:white;fill-rule:nonzero;"/>
            </g>
            <g transform="matrix(0,2,2,0,32,14)">
                <path d="M-1,-1L1,-1" style="fill:none;fill-rule:nonzero;stroke:black;stroke-width:1.67px;"/>
            </g>
            <g transform="matrix(2,0,0,2,21.9996,11.9994)">
                <path d="M0,2L0,0L0,2Z" style="fill:white;fill-rule:nonzero;"/>
            </g>
            <g transform="matrix(0,2,2,0,24,14)">
                <path d="M-1,-1L1,-1" style="fill:none;fill-rule:nonzero;stroke:black;stroke-width:1.67px;"/>
            </g>
            <g transform="matrix(2,0,0,2,37.9998,11.9994)">
                <path d="M0,2L0,0L0,2Z" style="fill:white;fill-rule:nonzero;"/>
            </g>
            <g transform="matrix(0,2,2,0,40,14)">
                <path d="M-1,-1L1,-1" style="fill:none;fill-rule:nonzero;stroke:black;stroke-width:1.67px;"/>
            </g>
            <g transform="matrix(2,0,0,2,46.0008,11.9994)">
                <path d="M0,2L0,0L0,2Z" style="fill:white;fill-rule:nonzero;"/>
            </g>
            <g transform="matrix(0,2,2,0,48,14)">
                <path d="M-1,-1L1,-1" style="fill:none;fill-rule:nonzero;stroke:black;stroke-width:1.67px;"/>
            </g>
        </g>
    </g>
</svg>
