<svg width="32" height="32" viewBox="0 0 32 32" fill="none" xmlns="http://www.w3.org/2000/svg">
<rect x="7" y="7" width="18" height="18" rx="2" fill="#008184"/>
<path d="M14.5001 20.5001C14.4343 20.5005 14.3691 20.4879 14.3081 20.463C14.2472 20.4381 14.1918 20.4014 14.1451 20.3551L10.6451 16.8551C10.5509 16.7609 10.498 16.6332 10.498 16.5001C10.498 16.3669 10.5509 16.2392 10.6451 16.1451C10.7392 16.0509 10.8669 15.998 11.0001 15.998C11.1332 15.998 11.2609 16.0509 11.3551 16.1451L14.5001 19.2951L21.1451 12.6451C21.2392 12.5509 21.3669 12.498 21.5001 12.498C21.6332 12.498 21.7609 12.5509 21.8551 12.6451C21.9492 12.7392 22.0021 12.8669 22.0021 13.0001C22.0021 13.1332 21.9492 13.2609 21.8551 13.3551L14.8551 20.3551C14.8084 20.4014 14.753 20.4381 14.692 20.463C14.6311 20.4879 14.5659 20.5005 14.5001 20.5001Z" fill="white"/>
</svg>
