<svg width="50" height="50" viewBox="0 0 50 50" fill="none" xmlns="http://www.w3.org/2000/svg">
<path d="M15.5716 35.8814C15.3659 35.8827 15.1621 35.8432 14.9717 35.7654C14.7813 35.6877 14.6082 35.5732 14.4622 35.4282C14.3157 35.2829 14.1995 35.1102 14.1202 34.9199C14.0408 34.7294 14 34.5252 14 34.3189C14 34.1127 14.0408 33.9084 14.1202 33.7179C14.1995 33.5277 14.3157 33.3547 14.4622 33.2094L22.7433 24.9439L14.4622 16.6783C14.1679 16.384 14.0027 15.985 14.0027 15.5689C14.0027 15.1528 14.1679 14.7537 14.4622 14.4595C14.7564 14.1653 15.1555 14 15.5716 14C15.9877 14 16.3867 14.1653 16.6809 14.4595L26.0558 23.8345C26.2023 23.9798 26.3186 24.1526 26.3978 24.343C26.4773 24.5334 26.5181 24.7376 26.5181 24.9439C26.5181 25.1502 26.4773 25.3544 26.3978 25.5449C26.3186 25.7352 26.2023 25.9079 26.0558 26.0532L16.6809 35.4282C16.5349 35.5732 16.3618 35.6877 16.1714 35.7654C15.981 35.8432 15.7772 35.8827 15.5716 35.8814Z" fill="black"/>
<path d="M33.6899 35.8814C33.4841 35.8827 33.2804 35.8432 33.0902 35.7654C32.8997 35.6877 32.7264 35.5732 32.5804 35.4282L23.2055 26.0532C23.059 25.9079 22.9428 25.7352 22.8635 25.5449C22.7841 25.3544 22.7433 25.1502 22.7433 24.9439C22.7433 24.7376 22.7841 24.5334 22.8635 24.343C22.9428 24.1526 23.059 23.9798 23.2055 23.8345L32.5804 14.4595C32.7261 14.3138 32.8991 14.1983 33.0894 14.1194C33.2799 14.0406 33.4839 14 33.6899 14C33.8959 14 34.0999 14.0406 34.2901 14.1194C34.4806 14.1983 34.6536 14.3138 34.7991 14.4595C34.9449 14.6052 35.0604 14.7782 35.1394 14.9685C35.2181 15.1589 35.2586 15.3629 35.2586 15.5689C35.2586 15.7749 35.2181 15.9789 35.1394 16.1693C35.0604 16.3596 34.9449 16.5326 34.7991 16.6783L26.5181 24.9439L34.7991 33.2094C34.9456 33.3547 35.0619 33.5277 35.1411 33.7179C35.2206 33.9084 35.2614 34.1127 35.2614 34.3189C35.2614 34.5252 35.2206 34.7294 35.1411 34.9199C35.0619 35.1102 34.9456 35.2829 34.7991 35.4282C34.6531 35.5732 34.4801 35.6877 34.2896 35.7654C34.0994 35.8432 33.8954 35.8827 33.6899 35.8814Z" fill="black"/>
</svg>
