<?xml version="1.0" encoding="UTF-8" standalone="no"?>
<!DOCTYPE svg PUBLIC "-//W3C//DTD SVG 1.1//EN" "http://www.w3.org/Graphics/SVG/1.1/DTD/svg11.dtd">
<svg width="100%" height="100%" viewBox="0 0 64 64" version="1.1" xmlns="http://www.w3.org/2000/svg" xmlns:xlink="http://www.w3.org/1999/xlink" xml:space="preserve" xmlns:serif="http://www.serif.com/" style="fill-rule:evenodd;clip-rule:evenodd;stroke-linecap:round;stroke-linejoin:round;stroke-miterlimit:10;">
    <g transform="matrix(1,0,0,1,1.06581e-14,-78.6667)">
        <g transform="matrix(1.04918,0,0,0.989691,-4.19672,1.47079)">
            <rect x="4" y="78" width="61" height="64.667" style="fill:none;"/>
        </g>
        <g>
            <g transform="matrix(-2,0,0,2,64,66.6667)">
                <rect x="3" y="10" width="26" height="18" style="fill:none;stroke:black;stroke-width:2px;"/>
            </g>
            <g transform="matrix(-2,0,0,2,64,114.667)">
                <rect x="12" y="4" width="8" height="6" style="fill:none;stroke:black;stroke-width:2px;"/>
            </g>
            <g transform="matrix(2,0,0,2,20,134.667)">
                <path d="M0,0L12,0" style="fill:none;fill-rule:nonzero;stroke:black;stroke-width:2px;"/>
            </g>
            <g transform="matrix(1.41421,-1.41421,-1.41421,-1.41421,16,101.495)">
                <path d="M-0.414,1L2.414,1" style="fill:none;fill-rule:nonzero;stroke:black;stroke-width:2px;"/>
            </g>
            <g transform="matrix(1.41421,-1.41421,-1.41421,-1.41421,23,112.738)">
                <path d="M-1.036,2.5L6.036,2.5" style="fill:none;fill-rule:nonzero;stroke:black;stroke-width:2px;"/>
            </g>
        </g>
    </g>
</svg>
