<svg width="50" height="50" viewBox="0 0 50 50" fill="none" xmlns="http://www.w3.org/2000/svg">
<path fill-rule="evenodd" clip-rule="evenodd" d="M45.3125 4.68982H4.6875C4.27348 4.69107 3.87677 4.85608 3.58402 5.14883C3.29125 5.4416 3.12623 5.8383 3.125 6.25233V34.3774C3.12623 34.7913 3.29125 35.188 3.58402 35.4808C3.87677 35.7736 4.27348 35.9386 4.6875 35.9399H17.1875V42.1899H15.625C15.2106 42.1899 14.8132 42.3544 14.5201 42.6475C14.2271 42.9405 14.0625 43.3378 14.0625 43.7524C14.0625 44.1668 14.2271 44.5641 14.5201 44.8572C14.8132 45.1502 15.2106 45.3149 15.625 45.3149H34.375C34.7894 45.3149 35.1869 45.1502 35.4798 44.8572C35.7728 44.5641 35.9375 44.1668 35.9375 43.7524C35.9375 43.3378 35.7728 42.9405 35.4798 42.6475C35.1869 42.3544 34.7894 42.1899 34.375 42.1899H32.8125V35.9399H45.3125C45.7266 35.9386 46.1233 35.7736 46.4159 35.4808C46.7087 35.188 46.8738 34.7913 46.875 34.3774V6.25233C46.8738 5.8383 46.7087 5.4416 46.4159 5.14883C46.1233 4.85608 45.7266 4.69107 45.3125 4.68982ZM29.6875 42.1899H20.3125V35.9399H29.6875V42.1899ZM43.75 32.8149H6.25V7.81483H43.75V32.8149ZM22.9844 18.2991L15.1719 26.1116C14.8757 26.4021 14.4774 26.5647 14.0625 26.5647C13.6477 26.5647 13.2493 26.4021 12.9531 26.1116C12.6604 25.8166 12.4961 25.4179 12.4961 25.0022C12.4961 24.5866 12.6604 24.1879 12.9531 23.8929L20.7656 16.0804C20.9111 15.9336 21.0841 15.8172 21.2747 15.7375C21.4653 15.6578 21.6698 15.6167 21.8764 15.6163C22.083 15.6158 22.2875 15.6563 22.4784 15.735C22.6694 15.8139 22.8428 15.9297 22.9889 16.0758C23.135 16.2219 23.2508 16.3954 23.3297 16.5863C23.4084 16.7772 23.4489 16.9818 23.4484 17.1883C23.448 17.3949 23.4069 17.5994 23.3272 17.79C23.2475 17.9807 23.1311 18.1536 22.9844 18.2991ZM10.0696 18.4864C10.3265 18.6582 10.6285 18.7499 10.9375 18.7499C11.1427 18.7502 11.346 18.7099 11.5355 18.6313C11.7251 18.5527 11.8973 18.4374 12.0422 18.2921L15.1672 15.1671C15.4518 14.8724 15.6093 14.4777 15.6057 14.068C15.6022 13.6584 15.4379 13.2665 15.1482 12.9768C14.8585 12.6871 14.4666 12.5227 14.0569 12.5192C13.6472 12.5156 13.2525 12.6731 12.9578 12.9577L9.83281 16.0827C9.61436 16.3013 9.46559 16.5796 9.40534 16.8827C9.34508 17.1857 9.37602 17.4999 9.49425 17.7854C9.61248 18.0708 9.8127 18.3147 10.0696 18.4864Z" fill="black"/>
</svg>
