<svg width="50" height="50" viewBox="0 0 50 50" fill="none" xmlns="http://www.w3.org/2000/svg">
<path d="M40.625 6.25003H31.8905L29.2342 3.57815C29.0882 3.43333 28.9152 3.31875 28.7247 3.241C28.5345 3.16325 28.3307 3.12383 28.125 3.12503H21.875C21.6694 3.12383 21.4655 3.16325 21.2752 3.241C21.0848 3.31875 20.9116 3.43333 20.7656 3.57815L18.1094 6.25003H9.375C8.9606 6.25003 8.56317 6.41463 8.27015 6.70765C7.97712 7.00068 7.8125 7.3981 7.8125 7.81253V14.0625C7.8125 14.4769 7.97712 14.8744 8.27015 15.1674C8.56317 15.4604 8.9606 15.625 9.375 15.625H10.9375V43.75C10.9375 44.1645 11.1021 44.5618 11.3952 44.8548C11.6882 45.1478 12.0856 45.3125 12.5 45.3125H37.5C37.9145 45.3125 38.3118 45.1478 38.6048 44.8548C38.898 44.5618 39.0625 44.1645 39.0625 43.75V15.625H40.625C41.0395 15.625 41.4368 15.4604 41.7298 15.1674C42.023 14.8744 42.1875 14.4769 42.1875 14.0625V7.81253C42.1875 7.3981 42.023 7.00068 41.7298 6.70765C41.4368 6.41463 41.0395 6.25003 40.625 6.25003ZM35.9375 42.1875H14.0625V15.625H35.9375V42.1875ZM39.0625 12.5H10.9375V9.37503H18.75C18.9556 9.3762 19.1595 9.3368 19.3499 9.25903C19.5402 9.18128 19.7134 9.0667 19.8594 8.9219L22.5156 6.25003H27.4845L30.1408 8.9219C30.2868 9.0667 30.4598 9.18128 30.6503 9.25903C30.8405 9.3368 31.0443 9.3762 31.25 9.37503H39.0625V12.5Z" fill="black"/>
<path d="M29.6875 39.0625C29.273 39.0625 28.8757 38.898 28.5827 38.6048C28.2895 38.3118 28.125 37.9145 28.125 37.5V20.3125C28.125 19.8981 28.2895 19.5007 28.5827 19.2077C28.8757 18.9146 29.273 18.75 29.6875 18.75C30.102 18.75 30.4993 18.9146 30.7923 19.2077C31.0855 19.5007 31.25 19.8981 31.25 20.3125V37.5C31.25 37.9145 31.0855 38.3118 30.7923 38.6048C30.4993 38.898 30.102 39.0625 29.6875 39.0625Z" fill="black"/>
<path d="M20.3125 39.0625C19.8981 39.0625 19.5007 38.898 19.2077 38.6048C18.9146 38.3118 18.75 37.9145 18.75 37.5V20.3125C18.75 19.8981 18.9146 19.5007 19.2077 19.2077C19.5007 18.9146 19.8981 18.75 20.3125 18.75C20.7269 18.75 21.1243 18.9146 21.4174 19.2077C21.7104 19.5007 21.875 19.8981 21.875 20.3125V37.5C21.875 37.9145 21.7104 38.3118 21.4174 38.6048C21.1243 38.898 20.7269 39.0625 20.3125 39.0625Z" fill="black"/>
</svg>
