<svg width="50" height="50" viewBox="0 0 50 50" fill="none" xmlns="http://www.w3.org/2000/svg">
<path d="M46.4223 3.57814C46.277 3.43169 46.1043 3.31547 45.914 3.23614C45.7235 3.15679 45.5193 3.11597 45.313 3.11597C45.1068 3.11597 44.9025 3.15679 44.712 3.23614C44.5218 3.31547 44.3488 3.43169 44.2035 3.57814L38.9535 8.82814C37.3753 7.76964 35.479 7.29079 33.5873 7.47312C31.6958 7.65544 29.9258 8.48767 28.5785 9.82814L26.563 11.8438L26.1098 11.3906C25.9643 11.245 25.7913 11.1294 25.6008 11.0506C25.4105 10.9717 25.2065 10.9311 25.0005 10.9311C24.5844 10.9311 24.1854 11.0964 23.8911 11.3906C23.7455 11.5363 23.6299 11.7093 23.5511 11.8996C23.4722 12.09 23.4316 12.294 23.4316 12.5C23.4316 12.9161 23.5969 13.3152 23.8911 13.6094L36.391 26.1093C36.5363 26.2558 36.7093 26.372 36.8995 26.4513C37.09 26.5308 37.2943 26.5715 37.5005 26.5715C37.7068 26.5715 37.911 26.5308 38.1015 26.4513C38.2918 26.372 38.4645 26.2558 38.6098 26.1093C38.7563 25.964 38.8725 25.7913 38.952 25.601C39.0313 25.4105 39.072 25.2063 39.072 25C39.072 24.7937 39.0313 24.5895 38.952 24.3991C38.8725 24.2087 38.7563 24.0359 38.6098 23.8906L38.1568 23.4375L40.1723 21.4219C41.5128 20.0748 42.345 18.3048 42.5275 16.4132C42.7098 14.5216 42.2308 12.6252 41.1723 11.0469L46.4223 5.79689C46.5688 5.65164 46.685 5.47882 46.7645 5.28842C46.8438 5.09802 46.8845 4.89379 46.8845 4.68752C46.8845 4.48124 46.8438 4.27702 46.7645 4.08662C46.685 3.89622 46.5688 3.72339 46.4223 3.57814ZM37.9535 19.2031L35.938 21.2188L28.766 14.0625L30.7818 12.0469C31.74 11.1443 33.0123 10.6505 34.3285 10.6702C35.6448 10.6899 36.9015 11.2216 37.8325 12.1524C38.7633 13.0833 39.295 14.3401 39.3148 15.6564C39.3343 16.9727 38.8405 18.2449 37.938 19.2031H37.9535Z" fill="black"/>
<path d="M35.9374 21.2188V21.2344L28.7656 14.0625H28.7811L35.9374 21.2188Z" fill="black"/>
<path d="M29.2337 25.4531C29.0885 25.3068 28.9155 25.1906 28.7252 25.1111C28.5347 25.0318 28.3305 24.991 28.1242 24.991C27.918 24.991 27.7137 25.0318 27.5235 25.1111C27.333 25.1906 27.1602 25.3068 27.015 25.4531L22.6555 29.8126L20.1868 27.3438L24.5462 22.9844C24.8404 22.6902 25.0057 22.2911 25.0057 21.875C25.0057 21.459 24.8404 21.0599 24.5462 20.7657C24.2519 20.4714 23.8529 20.3062 23.4368 20.3062C23.0207 20.3062 22.6216 20.4714 22.3274 20.7657L17.968 25.1251L15.1712 22.3282C14.8769 22.0339 14.4779 21.8687 14.0618 21.8687C13.6457 21.8687 13.2466 22.0339 12.9524 22.3282C12.6582 22.6224 12.4929 23.0215 12.4929 23.4375C12.4929 23.8536 12.6582 24.2527 12.9524 24.5469L13.4055 25L9.82741 28.5781C8.48693 29.9253 7.65471 31.6953 7.47238 33.5868C7.29006 35.4786 7.76891 37.3748 8.82741 38.9531L3.57741 44.2031C3.43096 44.3483 3.31473 44.5213 3.23541 44.7116C3.15608 44.9021 3.11523 45.1063 3.11523 45.3126C3.11523 45.5188 3.15608 45.7231 3.23541 45.9136C3.31473 46.1038 3.43096 46.2766 3.57741 46.4218C3.72266 46.5683 3.89548 46.6846 4.08588 46.7641C4.27628 46.8433 4.48053 46.884 4.68678 46.884C4.89306 46.884 5.09728 46.8433 5.28768 46.7641C5.47811 46.6846 5.65091 46.5683 5.79616 46.4218L11.0462 41.1718C12.6255 42.2276 14.5212 42.7046 16.412 42.5223C18.3029 42.3401 20.0726 41.5098 21.4212 40.1718L24.9992 36.5938L25.4525 37.0468C25.5977 37.1933 25.7705 37.3096 25.961 37.3891C26.1512 37.4683 26.3555 37.5091 26.5617 37.5091C26.768 37.5091 26.9722 37.4683 27.1627 37.3891C27.353 37.3096 27.526 37.1933 27.6712 37.0468C27.8177 36.9016 27.934 36.7288 28.0132 36.5386C28.0925 36.3481 28.1332 36.1438 28.1332 35.9376C28.1332 35.7313 28.0925 35.5271 28.0132 35.3366C27.934 35.1463 27.8177 34.9733 27.6712 34.8281L26.1087 33.2656L24.8743 32.0313L29.2337 27.6718C29.3802 27.5266 29.4965 27.3538 29.5757 27.1636C29.655 26.9731 29.6957 26.7688 29.6957 26.5626C29.6957 26.3563 29.655 26.1521 29.5757 25.9616C29.4965 25.7713 29.3802 25.5983 29.2337 25.4531ZM19.2024 37.9531C18.2441 38.8558 16.9719 39.3496 15.6557 39.3298C14.3394 39.3101 13.0825 38.7786 12.1517 37.8476C11.2208 36.9168 10.6892 35.6601 10.6695 34.3436C10.6498 33.0273 11.1436 31.7553 12.0462 30.7968L15.6243 27.2188L22.7805 34.3751L19.2024 37.9531Z" fill="black"/>
</svg>
