<svg width="32" height="32" viewBox="0 0 32 32" fill="none" xmlns="http://www.w3.org/2000/svg">
<path fill-rule="evenodd" clip-rule="evenodd" d="M16.71 22.71L24.71 14.71C24.8983 14.5217 25.0041 14.2663 25.0041 14C25.0041 13.7337 24.8983 13.4783 24.71 13.29C24.5217 13.1017 24.2663 12.9959 24 12.9959C23.7337 12.9959 23.4783 13.1017 23.29 13.29L17 19.59V3C17 2.73478 16.8946 2.48043 16.7071 2.29289C16.5196 2.10536 16.2652 2 16 2C15.7348 2 15.4804 2.10536 15.2929 2.29289C15.1054 2.48043 15 2.73478 15 3V19.59L8.71 13.29C8.5217 13.1017 8.2663 12.9959 8 12.9959C7.7337 12.9959 7.47831 13.1017 7.29 13.29C7.1017 13.4783 6.99591 13.7337 6.99591 14C6.99591 14.1319 7.02188 14.2624 7.07234 14.3842C7.1228 14.5061 7.19676 14.6168 7.29 14.71L15.29 22.71C15.383 22.8037 15.4936 22.8781 15.6154 22.9289C15.7373 22.9797 15.868 23.0058 16 23.0058C16.132 23.0058 16.2627 22.9797 16.3846 22.9289C16.5064 22.8781 16.617 22.8037 16.71 22.71ZM5 28H27C27.2652 28 27.5196 27.8946 27.7071 27.7071C27.8946 27.5196 28 27.2652 28 27V21C28 20.7348 27.8946 20.4804 27.7071 20.2929C27.5196 20.1054 27.2652 20 27 20C26.7348 20 26.4804 20.1054 26.2929 20.2929C26.1054 20.4804 26 20.7348 26 21V26H6V21C6 20.7348 5.89464 20.4804 5.70711 20.2929C5.51957 20.1054 5.26522 20 5 20C4.73478 20 4.48043 20.1054 4.29289 20.2929C4.10536 20.4804 4 20.7348 4 21V27C4 27.2652 4.10536 27.5196 4.29289 27.7071C4.48043 27.8946 4.73478 28 5 28Z" fill="black"/>
</svg>
