<?xml version="1.0" encoding="utf-8"?>
<!-- Generator: $$$/GeneralStr/196=Adobe Illustrator 27.6.0, SVG Export Plug-In . SVG Version: 6.00 Build 0)  -->
<svg version="1.1" id="Layer_1" xmlns="http://www.w3.org/2000/svg" xmlns:xlink="http://www.w3.org/1999/xlink" x="0px" y="0px"
	 viewBox="0 0 50 50" style="enable-background:new 0 0 50 50;" xml:space="preserve">
<path d="M35.9,40.6H14.1c-0.9,0-1.6-0.7-1.6-1.6V10.9c0-0.9,0.7-1.6,1.6-1.6h9.4c0.9,0,1.6,0.7,1.6,1.6s-0.7,1.6-1.6,1.6h-7.8v25
	h18.8v-6.2c0-0.9,0.7-1.6,1.6-1.6s1.6,0.7,1.6,1.6v7.8C37.5,39.9,36.8,40.6,35.9,40.6z"/>
<path d="M44.8,11.3l-4.6-4.6c-0.6-0.6-1.6-0.6-2.2,0L23.9,20.8c-0.1,0.1-0.2,0.3-0.3,0.4l-4.7,9.4c-0.3,0.6-0.2,1.3,0.3,1.8
	c0.3,0.3,0.7,0.5,1.1,0.5c0.2,0,0.5-0.1,0.7-0.2l9.3-4.7c0.1-0.1,0.3-0.2,0.4-0.3l14.1-14.1C45.4,12.9,45.4,12,44.8,11.3z
	 M28.7,25.2l-4.9,2.5l2.5-4.9l8.1-8.1l2.4,2.4L28.7,25.2z M39,14.9l-2.4-2.4l2.5-2.5l2.4,2.4L39,14.9z"/>
</svg>
