<svg width="50" height="50" viewBox="-1 0 25 18" fill="none" xmlns="http://www.w3.org/2000/svg">
<path d="M23.95 7.6C23.8685 7.49128 23.7629 7.40305 23.6414 7.34229C23.5198 7.28154 23.3859 7.24994 23.25 7.25H21.5V4.625C21.4993 4.39314 21.4069 4.17097 21.243 4.00702C21.079 3.84307 20.8569 3.75067 20.625 3.75H11.3587L8.12125 0.50375C7.95444 0.342525 7.73199 0.251665 7.5 0.25H1.375C1.14314 0.250669 0.92097 0.343072 0.757021 0.507021C0.593072 0.67097 0.500669 0.893141 0.5 1.125V16.875C0.500669 17.1069 0.593072 17.329 0.757021 17.493C0.92097 17.6569 1.14314 17.7493 1.375 17.75H20.625C20.8129 17.7494 20.9958 17.6888 21.1468 17.5771C21.2979 17.4653 21.4094 17.3083 21.465 17.1287L24.09 8.37875C24.1287 8.24698 24.1361 8.10802 24.1118 7.97286C24.0875 7.83771 24.0321 7.71005 23.95 7.6ZM2.25 2H7.14125L10.3787 5.24625C10.5456 5.40747 10.768 5.49834 11 5.5H19.75V7.25H4C3.81207 7.25059 3.62925 7.31117 3.47815 7.42292C3.32706 7.53466 3.2156 7.69174 3.16 7.87125L2.25 10.9075V2ZM19.9775 16H2.5475L4.6475 9H22.0775L19.9775 16Z" fill="black"/>
</svg>
