<svg width="32" height="32" viewBox="0 0 32 32" fill="none" xmlns="http://www.w3.org/2000/svg">
<path fill-rule="evenodd" clip-rule="evenodd" d="M13.2937 19.7063C13.1064 19.5189 13.0008 19.265 13 19V13C13.0008 12.735 13.1064 12.4811 13.2937 12.2937C13.4811 12.1064 13.735 12.0008 14 12C14.2652 12 14.5196 11.8946 14.7071 11.7071C14.8946 11.5196 15 11.2652 15 11C15 10.7348 14.8946 10.4804 14.7071 10.2929C14.5196 10.1054 14.2652 10 14 10C13.2051 10.0023 12.4433 10.3191 11.8812 10.8812C11.3191 11.4433 11.0023 12.2051 11 13V15H10C9.73478 15 9.48043 15.1054 9.29289 15.2929C9.10536 15.4804 9 15.7348 9 16C9 16.2652 9.10536 16.5196 9.29289 16.7071C9.48043 16.8946 9.73478 17 10 17H11V19C11.0023 19.7949 11.3192 20.5566 11.8813 21.1187C12.4434 21.6808 13.2051 21.9977 14 22C14.2652 22 14.5196 21.8946 14.7071 21.7071C14.8946 21.5196 15 21.2652 15 21C15 20.7348 14.8946 20.4804 14.7071 20.2929C14.5196 20.1054 14.2652 20 14 20C13.735 19.9992 13.4811 19.8936 13.2937 19.7063ZM22.7063 16.7063C22.8936 16.5189 22.9992 16.265 23 16C22.9992 15.735 22.8936 15.4811 22.7063 15.2937C22.5189 15.1064 22.265 15.0008 22 15H21V13C20.9977 12.2051 20.6809 11.4433 20.1188 10.8812C19.5567 10.3191 18.7949 10.0023 18 10C17.7348 10 17.4804 10.1054 17.2929 10.2929C17.1054 10.4804 17 10.7348 17 11C17 11.2652 17.1054 11.5196 17.2929 11.7071C17.4804 11.8946 17.7348 12 18 12C18.265 12.0008 18.5189 12.1064 18.7063 12.2937C18.8936 12.4811 18.9992 12.735 19 13V19C18.9992 19.265 18.8936 19.5189 18.7063 19.7063C18.5189 19.8936 18.265 19.9992 18 20C17.7348 20 17.4804 20.1054 17.2929 20.2929C17.1054 20.4804 17 20.7348 17 21C17 21.2652 17.1054 21.5196 17.2929 21.7071C17.4804 21.8946 17.7348 22 18 22C18.7949 21.9977 19.5566 21.6808 20.1187 21.1187C20.6808 20.5566 20.9977 19.7949 21 19V17H22C22.265 16.9992 22.5189 16.8936 22.7063 16.7063Z" fill="black"/>
</svg>
