<svg width="32" height="32" viewBox="0 0 32 32" fill="none" xmlns="http://www.w3.org/2000/svg">
<path fill-rule="evenodd" clip-rule="evenodd" d="M13.1227 4.23376C14.0265 4.07932 14.9417 4.00119 15.8587 4.0002C16.8578 3.99447 17.8556 4.0726 18.8416 4.23376C19.5937 4.3111 20.2941 4.65256 20.8182 5.19747C21.3424 5.74238 21.6564 6.45545 21.7044 7.21V12.6621C21.7077 13.0412 21.6363 13.4172 21.4941 13.7686C21.352 14.12 21.142 14.44 20.8761 14.7102C20.6102 14.9804 20.2937 15.1956 19.9446 15.3434C19.5955 15.4912 19.2207 15.5688 18.8416 15.5716H13.1226C12.1823 15.5873 11.2846 15.9665 10.6178 16.6296C9.95095 17.2927 9.56675 18.1883 9.54576 19.1285V21.7444H7.57714C5.91314 21.7444 4.94114 20.5366 4.53414 18.8415C3.9967 16.939 3.9967 14.9249 4.53414 13.0224C4.69247 12.1946 5.13823 11.4492 5.7927 10.9181C6.44717 10.3869 7.26826 10.1041 8.111 10.1196H15.9855V9.39218H10.2598V7.21003C10.2598 5.55776 10.6998 4.66176 13.1227 4.23376ZM13.3727 5.93072C13.1911 5.813 12.9786 5.75193 12.7623 5.75526C12.4748 5.75842 12.2004 5.87538 11.999 6.08051C11.7976 6.28564 11.6857 6.56222 11.6879 6.84967C11.6885 7.06606 11.7535 7.27737 11.8746 7.45674C11.9956 7.63611 12.1673 7.77544 12.3677 7.85702C12.5681 7.9386 12.7883 7.95874 13.0002 7.9149C13.2121 7.87105 13.4062 7.76519 13.5578 7.61077C13.7094 7.45635 13.8116 7.26035 13.8515 7.04767C13.8915 6.835 13.8673 6.61525 13.782 6.41636C13.6967 6.21748 13.5543 6.04844 13.3727 5.93072ZM22.4185 12.662V10.1195H24.5672C26.2334 10.1195 27.0188 11.3658 27.43 13.0224C28.0176 14.9176 28.0176 16.9463 27.43 18.8415C26.8513 20.5836 26.2312 21.7443 24.5672 21.7443H15.9854V22.4717H21.7044V24.6539C21.7044 26.3061 20.2831 27.1461 18.8416 27.5634C16.9797 28.1457 14.9845 28.1457 13.1226 27.5634C11.6091 27.1182 10.2598 26.2056 10.2598 24.6539V19.2018C10.2626 18.4391 10.5636 17.7077 11.0986 17.164C11.6336 16.6203 12.36 16.3074 13.1226 16.2923H18.8416C19.7917 16.2676 20.6952 15.8756 21.3623 15.1986C22.0293 14.5216 22.4079 13.6124 22.4185 12.662ZM19.8131 24.1025C19.6314 23.9844 19.4186 23.9232 19.202 23.9265L19.202 23.9265C19.06 23.9273 18.9196 23.9561 18.7887 24.0112C18.6578 24.0663 18.5391 24.1467 18.4393 24.2477C18.3395 24.3487 18.2607 24.4684 18.2072 24.6C18.1537 24.7315 18.1266 24.8723 18.1276 25.0143C18.1269 25.231 18.1908 25.4429 18.311 25.6232C18.4312 25.8034 18.6024 25.9438 18.8027 26.0264C19.0031 26.109 19.2234 26.1301 19.4358 26.087C19.6481 26.0439 19.8428 25.9386 19.9951 25.7844C20.1474 25.6303 20.2503 25.4343 20.2908 25.2214C20.3312 25.0086 20.3074 24.7885 20.2224 24.5892C20.1373 24.3899 19.9948 24.2205 19.8131 24.1025Z" fill="black"/>
</svg>
