<svg width="50" height="50" viewBox="0 0 50 50" fill="none" xmlns="http://www.w3.org/2000/svg">
<path d="M39.5833 4.16667H30.875C30 1.75 27.7083 0 25 0C22.2917 0 20 1.75 19.125 4.16667H10.4167C8.125 4.16667 6.25 6.04167 6.25 8.33333V41.6667C6.25 43.9583 8.125 45.8333 10.4167 45.8333H39.5833C41.875 45.8333 43.75 43.9583 43.75 41.6667V8.33333C43.75 6.04167 41.875 4.16667 39.5833 4.16667ZM25 4.16667C26.1458 4.16667 27.0833 5.10417 27.0833 6.25C27.0833 7.39583 26.1458 8.33333 25 8.33333C23.8542 8.33333 22.9167 7.39583 22.9167 6.25C22.9167 5.10417 23.8542 4.16667 25 4.16667ZM39.5833 41.6667H10.4167V8.33333H14.5833V14.5833H35.4167V8.33333H39.5833V41.6667Z" fill="black"/>
<path fill-rule="evenodd" clip-rule="evenodd" d="M30.875 4.16667C30 1.75 27.7083 0 25 0C22.2917 0 20 1.75 19.125 4.16667H10.4167C8.125 4.16667 6.25 6.04167 6.25 8.33333V41.6667C6.25 43.9583 8.125 45.8333 10.4167 45.8333H39.5833C41.875 45.8333 43.75 43.9583 43.75 41.6667V8.33333C43.75 6.04167 41.875 4.16667 39.5833 4.16667H30.875ZM10.4167 41.6667V8.33333H14.5833V14.5833H35.4167V8.33333H39.5833V41.6667H10.4167ZM27.0833 6.25C27.0833 5.10417 26.1458 4.16667 25 4.16667C23.8542 4.16667 22.9167 5.10417 22.9167 6.25C22.9167 7.39583 23.8542 8.33333 25 8.33333C26.1458 8.33333 27.0833 7.39583 27.0833 6.25Z" fill="black"/>
</svg>
