<svg width="32" height="32" viewBox="0 0 32 32" fill="none" xmlns="http://www.w3.org/2000/svg">
<path d="M27.0063 7.59226L24.4077 4.99363C23.0806 3.66551 20.9194 3.66551 19.5923 4.99363L6.29297 18.293C6.16455 18.4209 6.07373 18.5815 6.02979 18.7573L4.02979 26.7573C3.94483 27.0981 4.04444 27.4585 4.29297 27.707C4.48291 27.897 4.73828 28 5 28C5.08057 28 5.16211 27.9902 5.24268 27.9702L13.2427 25.9702C13.4185 25.9263 13.5791 25.8354 13.707 25.707L27.0064 12.4077C28.334 11.0801 28.334 8.9199 27.0063 7.59226ZM12.4888 24.0971L8.50659 25.0925L6.90747 23.4934L7.90283 19.5112L18.5 8.91403L20.0859 10.5L14.293 16.2929C13.9023 16.6836 13.9023 17.3164 14.293 17.707C14.4883 17.9023 14.7441 18 15 18C15.2559 18 15.5117 17.9023 15.707 17.707L21.5 11.914L23.0859 13.5L12.4888 24.0971ZM25.5923 10.9936L24.5 12.0859L19.9141 7.49997L21.0063 6.40768C21.5376 5.87643 22.4624 5.87643 22.9936 6.40768L25.5923 9.00631C25.8579 9.27193 26.0039 9.62496 26.0039 9.99996C26.0039 10.375 25.8579 10.728 25.5923 10.9936Z" fill="black"/>
</svg>
