<svg width="50" height="50" viewBox="0 0 50 50" fill="none" xmlns="http://www.w3.org/2000/svg">
<path d="M42.375 13.6094L36.3908 7.625C35.5125 6.74567 34.321 6.2511 33.0783 6.25H7.8125C7.3981 6.25 7.00067 6.41462 6.70765 6.70765C6.41462 7.00067 6.25 7.3981 6.25 7.8125V42.1875C6.25 42.602 6.41462 42.9993 6.70765 43.2923C7.00067 43.5855 7.3981 43.75 7.8125 43.75H42.1875C42.602 43.75 42.9993 43.5855 43.2923 43.2923C43.5855 42.9993 43.75 42.602 43.75 42.1875V16.9219C43.749 15.6791 43.2543 14.4876 42.375 13.6094ZM18.75 9.375H31.25V15.625H18.75V9.375ZM40.625 40.625H9.375V9.375H15.625V17.1875C15.625 17.6019 15.7896 17.9993 16.0827 18.2923C16.3757 18.5854 16.7731 18.75 17.1875 18.75H32.8125C33.227 18.75 33.6243 18.5854 33.9173 18.2923C34.2105 17.9993 34.375 17.6019 34.375 17.1875V10.0156L40.1718 15.8125C40.3168 15.9585 40.4312 16.1317 40.509 16.322C40.5867 16.5124 40.6263 16.7163 40.625 16.9219V40.625Z" fill="black"/>
<path d="M32.8125 23.4375H17.1875C16.7731 23.4375 16.3757 23.6021 16.0827 23.8951C15.7896 24.1882 15.625 24.5856 15.625 25V34.375C15.625 34.7895 15.7896 35.1868 16.0827 35.4798C16.3757 35.773 16.7731 35.9375 17.1875 35.9375H32.8125C33.227 35.9375 33.6243 35.773 33.9173 35.4798C34.2105 35.1868 34.375 34.7895 34.375 34.375V25C34.375 24.5856 34.2105 24.1882 33.9173 23.8951C33.6243 23.6021 33.227 23.4375 32.8125 23.4375ZM31.25 32.8125H18.75V26.5625H31.25V32.8125Z" fill="black"/>
</svg>
