<svg width="50" height="50" viewBox="0 0 50 50" fill="none" xmlns="http://www.w3.org/2000/svg">
<path d="M37.5 39.0625H12.5C12.2948 39.0625 12.0915 39.0223 11.9019 38.9438C11.7123 38.8653 11.54 38.7503 11.3949 38.605C11.2498 38.46 11.1347 38.2877 11.0562 38.098C10.9777 37.9085 10.9374 37.7052 10.9375 37.5V12.5C10.9374 12.2948 10.9777 12.0915 11.0562 11.9019C11.1347 11.7123 11.2498 11.54 11.3949 11.3949C11.54 11.2498 11.7123 11.1347 11.9019 11.0562C12.0915 10.9777 12.2948 10.9374 12.5 10.9375H37.5C37.7052 10.9374 37.9085 10.9777 38.098 11.0562C38.2877 11.1347 38.46 11.2498 38.605 11.3949C38.7503 11.54 38.8653 11.7123 38.9438 11.9019C39.0223 12.0915 39.0625 12.2948 39.0625 12.5V37.5C39.0625 37.7052 39.0223 37.9085 38.9438 38.098C38.8653 38.2877 38.7503 38.46 38.605 38.605C38.46 38.7503 38.2877 38.8653 38.098 38.9438C37.9085 39.0223 37.7052 39.0625 37.5 39.0625ZM14.0625 35.9375H35.9375V14.0625H14.0625V35.9375Z" fill="black"/>
</svg>
