<svg width="32" height="32" viewBox="0 0 32 32" fill="none" xmlns="http://www.w3.org/2000/svg">
<path fill-rule="evenodd" clip-rule="evenodd" d="M24.3846 11.9348C24.5064 11.884 24.617 11.8096 24.71 11.7159C24.8037 11.6229 24.8781 11.5123 24.9289 11.3904C24.9797 11.2686 25.0058 11.1379 25.0058 11.0059C25.0058 10.8738 24.9797 10.7431 24.9289 10.6213C24.8781 10.4994 24.8037 10.3888 24.71 10.2959L16.71 2.29586C16.617 2.20213 16.5064 2.12774 16.3846 2.07697C16.2627 2.0262 16.132 2.00006 16 2.00006C15.868 2.00006 15.7373 2.0262 15.6154 2.07697C15.4936 2.12774 15.383 2.20213 15.29 2.29586L7.29 10.2959C7.1017 10.4842 6.99591 10.7396 6.99591 11.0059C6.99591 11.2722 7.1017 11.5276 7.29 11.7159C7.47831 11.9042 7.7337 12.01 8 12.01C8.2663 12.01 8.5217 11.9042 8.71 11.7159L15 5.41586V22.0059C15 22.2711 15.1054 22.5254 15.2929 22.713C15.4804 22.9005 15.7348 23.0059 16 23.0059C16.2652 23.0059 16.5196 22.9005 16.7071 22.713C16.8946 22.5254 17 22.2711 17 22.0059V5.41586L23.29 11.7159C23.383 11.8096 23.4936 11.884 23.6154 11.9348C23.7373 11.9855 23.868 12.0117 24 12.0117C24.132 12.0117 24.2627 11.9855 24.3846 11.9348ZM5.70711 20.293C5.51957 20.1054 5.26522 20.0001 5 20.0001C4.73478 20.0001 4.48043 20.1054 4.29289 20.293C4.10536 20.4805 4 20.7348 4 21.0001V27.0001C4 27.2653 4.10536 27.5196 4.29289 27.7072C4.48043 27.8947 4.73478 28.0001 5 28.0001L27 28.0001C27.2652 28.0001 27.5196 27.8947 27.7071 27.7072C27.8946 27.5196 28 27.2653 28 27.0001V21.0001C28 20.7348 27.8946 20.4805 27.7071 20.293C27.5196 20.1054 27.2652 20.0001 27 20.0001C26.7348 20.0001 26.4804 20.1054 26.2929 20.293C26.1054 20.4805 26 20.7348 26 21.0001V26.0001L6 26.0001L6 21.0001C6 20.7348 5.89464 20.4805 5.70711 20.293Z" fill="black"/>
</svg>
